%TF.GenerationSoftware,KiCad,Pcbnew,7.0.1*%
%TF.CreationDate,2023-05-11T10:15:00-05:00*%
%TF.ProjectId,i5ether,69356574-6865-4722-9e6b-696361645f70,rev?*%
%TF.SameCoordinates,Original*%
%TF.FileFunction,Soldermask,Bot*%
%TF.FilePolarity,Negative*%
%FSLAX46Y46*%
G04 Gerber Fmt 4.6, Leading zero omitted, Abs format (unit mm)*
G04 Created by KiCad (PCBNEW 7.0.1) date 2023-05-11 10:15:00*
%MOMM*%
%LPD*%
G01*
G04 APERTURE LIST*
G04 Aperture macros list*
%AMRoundRect*
0 Rectangle with rounded corners*
0 $1 Rounding radius*
0 $2 $3 $4 $5 $6 $7 $8 $9 X,Y pos of 4 corners*
0 Add a 4 corners polygon primitive as box body*
4,1,4,$2,$3,$4,$5,$6,$7,$8,$9,$2,$3,0*
0 Add four circle primitives for the rounded corners*
1,1,$1+$1,$2,$3*
1,1,$1+$1,$4,$5*
1,1,$1+$1,$6,$7*
1,1,$1+$1,$8,$9*
0 Add four rect primitives between the rounded corners*
20,1,$1+$1,$2,$3,$4,$5,0*
20,1,$1+$1,$4,$5,$6,$7,0*
20,1,$1+$1,$6,$7,$8,$9,0*
20,1,$1+$1,$8,$9,$2,$3,0*%
G04 Aperture macros list end*
%ADD10RoundRect,0.250000X0.600000X-0.600000X0.600000X0.600000X-0.600000X0.600000X-0.600000X-0.600000X0*%
%ADD11C,1.700000*%
%ADD12C,8.000000*%
%ADD13R,1.700000X1.700000*%
%ADD14O,1.700000X1.700000*%
%ADD15RoundRect,0.250000X-0.600000X-0.600000X0.600000X-0.600000X0.600000X0.600000X-0.600000X0.600000X0*%
%ADD16C,3.250000*%
%ADD17C,1.400000*%
%ADD18C,1.530000*%
%ADD19C,2.400000*%
G04 APERTURE END LIST*
D10*
%TO.C,J1*%
X146920000Y-95150000D03*
D11*
X146920000Y-92610000D03*
X149460000Y-95150000D03*
X149460000Y-92610000D03*
X152000000Y-95150000D03*
X152000000Y-92610000D03*
X154540000Y-95150000D03*
X154540000Y-92610000D03*
X157080000Y-95150000D03*
X157080000Y-92610000D03*
X159620000Y-95150000D03*
X159620000Y-92610000D03*
X162160000Y-95150000D03*
X162160000Y-92610000D03*
X164700000Y-95150000D03*
X164700000Y-92610000D03*
D12*
X137980000Y-94130000D03*
X173640000Y-94130000D03*
%TD*%
D13*
%TO.C,J4*%
X106750000Y-126290000D03*
D14*
X106750000Y-123750000D03*
X106750000Y-121210000D03*
X106750000Y-118670000D03*
%TD*%
D15*
%TO.C,J3*%
X116350000Y-95780000D03*
D11*
X118890000Y-95780000D03*
X116350000Y-98320000D03*
X118890000Y-98320000D03*
X116350000Y-100860000D03*
X118890000Y-100860000D03*
X116350000Y-103400000D03*
X118890000Y-103400000D03*
%TD*%
D16*
%TO.C,J2*%
X181755000Y-137090000D03*
X170325000Y-137090000D03*
D17*
X171595000Y-130740000D03*
X172865000Y-128200000D03*
X174135000Y-130740000D03*
X175405000Y-128200000D03*
X176675000Y-130740000D03*
X177945000Y-128200000D03*
X179215000Y-130740000D03*
X180485000Y-128200000D03*
D18*
X169410000Y-141170000D03*
X171950000Y-141170000D03*
X180130000Y-141170000D03*
X182670000Y-141170000D03*
D19*
X183785000Y-134040000D03*
X168295000Y-134040000D03*
%TD*%
D13*
%TO.C,P1*%
X192910000Y-88120000D03*
D14*
X190370000Y-88120000D03*
X192910000Y-90660000D03*
X190370000Y-90660000D03*
X192910000Y-93200000D03*
X190370000Y-93200000D03*
X192910000Y-95740000D03*
X190370000Y-95740000D03*
X192910000Y-98280000D03*
X190370000Y-98280000D03*
X192910000Y-100820000D03*
X190370000Y-100820000D03*
X192910000Y-103360000D03*
X190370000Y-103360000D03*
X192910000Y-105900000D03*
X190370000Y-105900000D03*
X192910000Y-108440000D03*
X190370000Y-108440000D03*
X192910000Y-110980000D03*
X190370000Y-110980000D03*
X192910000Y-113520000D03*
X190370000Y-113520000D03*
X192910000Y-116060000D03*
X190370000Y-116060000D03*
X192910000Y-118600000D03*
X190370000Y-118600000D03*
X192910000Y-121140000D03*
X190370000Y-121140000D03*
X192910000Y-123680000D03*
X190370000Y-123680000D03*
%TD*%
D13*
%TO.C,P5*%
X134790000Y-138980000D03*
D14*
X134790000Y-136440000D03*
X132250000Y-138980000D03*
X132250000Y-136440000D03*
X129710000Y-138980000D03*
X129710000Y-136440000D03*
X127170000Y-138980000D03*
X127170000Y-136440000D03*
X124630000Y-138980000D03*
X124630000Y-136440000D03*
X122090000Y-138980000D03*
X122090000Y-136440000D03*
X119550000Y-138980000D03*
X119550000Y-136440000D03*
X117010000Y-138980000D03*
X117010000Y-136440000D03*
X114470000Y-138980000D03*
X114470000Y-136440000D03*
X111930000Y-138980000D03*
X111930000Y-136440000D03*
X109390000Y-138980000D03*
X109390000Y-136440000D03*
X106850000Y-138980000D03*
X106850000Y-136440000D03*
X104310000Y-138980000D03*
X104310000Y-136440000D03*
X101770000Y-138980000D03*
X101770000Y-136440000D03*
X99230000Y-138980000D03*
X99230000Y-136440000D03*
%TD*%
D13*
%TO.C,P2*%
X157380000Y-72880000D03*
D14*
X157380000Y-75420000D03*
X159920000Y-72880000D03*
X159920000Y-75420000D03*
X162460000Y-72880000D03*
X162460000Y-75420000D03*
X165000000Y-72880000D03*
X165000000Y-75420000D03*
X167540000Y-72880000D03*
X167540000Y-75420000D03*
X170080000Y-72880000D03*
X170080000Y-75420000D03*
X172620000Y-72880000D03*
X172620000Y-75420000D03*
X175160000Y-72880000D03*
X175160000Y-75420000D03*
X177700000Y-72880000D03*
X177700000Y-75420000D03*
X180240000Y-72880000D03*
X180240000Y-75420000D03*
X182780000Y-72880000D03*
X182780000Y-75420000D03*
X185320000Y-72880000D03*
X185320000Y-75420000D03*
X187860000Y-72880000D03*
X187860000Y-75420000D03*
X190400000Y-72880000D03*
X190400000Y-75420000D03*
X192940000Y-72880000D03*
X192940000Y-75420000D03*
%TD*%
D13*
%TO.C,P4*%
X99190000Y-123740000D03*
D14*
X101730000Y-123740000D03*
X99190000Y-121200000D03*
X101730000Y-121200000D03*
X99190000Y-118660000D03*
X101730000Y-118660000D03*
X99190000Y-116120000D03*
X101730000Y-116120000D03*
X99190000Y-113580000D03*
X101730000Y-113580000D03*
X99190000Y-111040000D03*
X101730000Y-111040000D03*
X99190000Y-108500000D03*
X101730000Y-108500000D03*
X99190000Y-105960000D03*
X101730000Y-105960000D03*
X99190000Y-103420000D03*
X101730000Y-103420000D03*
X99190000Y-100880000D03*
X101730000Y-100880000D03*
X99190000Y-98340000D03*
X101730000Y-98340000D03*
X99190000Y-95800000D03*
X101730000Y-95800000D03*
X99190000Y-93260000D03*
X101730000Y-93260000D03*
X99190000Y-90720000D03*
X101730000Y-90720000D03*
X99190000Y-88180000D03*
X101730000Y-88180000D03*
%TD*%
D13*
%TO.C,P3*%
X99180000Y-72960000D03*
D14*
X99180000Y-75500000D03*
X101720000Y-72960000D03*
X101720000Y-75500000D03*
X104260000Y-72960000D03*
X104260000Y-75500000D03*
X106800000Y-72960000D03*
X106800000Y-75500000D03*
X109340000Y-72960000D03*
X109340000Y-75500000D03*
X111880000Y-72960000D03*
X111880000Y-75500000D03*
X114420000Y-72960000D03*
X114420000Y-75500000D03*
X116960000Y-72960000D03*
X116960000Y-75500000D03*
X119500000Y-72960000D03*
X119500000Y-75500000D03*
X122040000Y-72960000D03*
X122040000Y-75500000D03*
X124580000Y-72960000D03*
X124580000Y-75500000D03*
X127120000Y-72960000D03*
X127120000Y-75500000D03*
X129660000Y-72960000D03*
X129660000Y-75500000D03*
X132200000Y-72960000D03*
X132200000Y-75500000D03*
X134740000Y-72960000D03*
X134740000Y-75500000D03*
%TD*%
M02*
