%TF.GenerationSoftware,KiCad,Pcbnew,7.0.1*%
%TF.CreationDate,2023-05-11T10:15:00-05:00*%
%TF.ProjectId,i5ether,69356574-6865-4722-9e6b-696361645f70,rev?*%
%TF.SameCoordinates,Original*%
%TF.FileFunction,Copper,L1,Top*%
%TF.FilePolarity,Positive*%
%FSLAX46Y46*%
G04 Gerber Fmt 4.6, Leading zero omitted, Abs format (unit mm)*
G04 Created by KiCad (PCBNEW 7.0.1) date 2023-05-11 10:15:00*
%MOMM*%
%LPD*%
G01*
G04 APERTURE LIST*
G04 Aperture macros list*
%AMRoundRect*
0 Rectangle with rounded corners*
0 $1 Rounding radius*
0 $2 $3 $4 $5 $6 $7 $8 $9 X,Y pos of 4 corners*
0 Add a 4 corners polygon primitive as box body*
4,1,4,$2,$3,$4,$5,$6,$7,$8,$9,$2,$3,0*
0 Add four circle primitives for the rounded corners*
1,1,$1+$1,$2,$3*
1,1,$1+$1,$4,$5*
1,1,$1+$1,$6,$7*
1,1,$1+$1,$8,$9*
0 Add four rect primitives between the rounded corners*
20,1,$1+$1,$2,$3,$4,$5,0*
20,1,$1+$1,$4,$5,$6,$7,0*
20,1,$1+$1,$6,$7,$8,$9,0*
20,1,$1+$1,$8,$9,$2,$3,0*%
G04 Aperture macros list end*
%TA.AperFunction,ComponentPad*%
%ADD10RoundRect,0.250000X0.600000X-0.600000X0.600000X0.600000X-0.600000X0.600000X-0.600000X-0.600000X0*%
%TD*%
%TA.AperFunction,ComponentPad*%
%ADD11C,1.700000*%
%TD*%
%TA.AperFunction,ComponentPad*%
%ADD12C,8.000000*%
%TD*%
%TA.AperFunction,ComponentPad*%
%ADD13R,1.700000X1.700000*%
%TD*%
%TA.AperFunction,ComponentPad*%
%ADD14O,1.700000X1.700000*%
%TD*%
%TA.AperFunction,SMDPad,CuDef*%
%ADD15RoundRect,0.237500X-0.237500X0.250000X-0.237500X-0.250000X0.237500X-0.250000X0.237500X0.250000X0*%
%TD*%
%TA.AperFunction,ComponentPad*%
%ADD16RoundRect,0.250000X-0.600000X-0.600000X0.600000X-0.600000X0.600000X0.600000X-0.600000X0.600000X0*%
%TD*%
%TA.AperFunction,SMDPad,CuDef*%
%ADD17RoundRect,0.237500X0.250000X0.237500X-0.250000X0.237500X-0.250000X-0.237500X0.250000X-0.237500X0*%
%TD*%
%TA.AperFunction,ComponentPad*%
%ADD18C,1.400000*%
%TD*%
%TA.AperFunction,ComponentPad*%
%ADD19C,1.530000*%
%TD*%
%TA.AperFunction,ComponentPad*%
%ADD20C,2.400000*%
%TD*%
%TA.AperFunction,ViaPad*%
%ADD21C,0.500000*%
%TD*%
%TA.AperFunction,Conductor*%
%ADD22C,0.200000*%
%TD*%
%TA.AperFunction,Conductor*%
%ADD23C,0.300000*%
%TD*%
G04 APERTURE END LIST*
D10*
%TO.P,J1,1,Pin_1*%
%TO.N,/screen_module/T_IRQ*%
X146920000Y-95150000D03*
D11*
%TO.P,J1,2,Pin_2*%
%TO.N,/screen_module/SDO(MISO)*%
X146920000Y-92610000D03*
%TO.P,J1,3,Pin_3*%
%TO.N,/screen_module/SDI(MOSI)*%
X149460000Y-95150000D03*
%TO.P,J1,4,Pin_4*%
%TO.N,/screen_module/T_CS*%
X149460000Y-92610000D03*
%TO.P,J1,5,Pin_5*%
%TO.N,/screen_module/SCK*%
X152000000Y-95150000D03*
%TO.P,J1,6,Pin_6*%
%TO.N,/screen_module/SDO(MISO)*%
X152000000Y-92610000D03*
%TO.P,J1,7,Pin_7*%
%TO.N,+3.3V*%
X154540000Y-95150000D03*
%TO.P,J1,8,Pin_8*%
%TO.N,/screen_module/SCK*%
X154540000Y-92610000D03*
%TO.P,J1,9,Pin_9*%
%TO.N,/screen_module/SDI(MOSI)*%
X157080000Y-95150000D03*
%TO.P,J1,10,Pin_10*%
%TO.N,/screen_module/DC*%
X157080000Y-92610000D03*
%TO.P,J1,11,Pin_11*%
%TO.N,+3.3V*%
X159620000Y-95150000D03*
%TO.P,J1,12,Pin_12*%
%TO.N,/screen_module/CS*%
X159620000Y-92610000D03*
%TO.P,J1,13,Pin_13*%
%TO.N,GND*%
X162160000Y-95150000D03*
%TO.P,J1,14,Pin_14*%
%TO.N,+3.3V*%
X162160000Y-92610000D03*
%TO.P,J1,15*%
%TO.N,N/C*%
X164700000Y-95150000D03*
%TO.P,J1,16*%
X164700000Y-92610000D03*
D12*
%TO.P,J1,MP*%
X137980000Y-94130000D03*
X173640000Y-94130000D03*
%TD*%
D13*
%TO.P,J4,1,Pin_1*%
%TO.N,+3.3V*%
X106750000Y-126290000D03*
D14*
%TO.P,J4,2,Pin_2*%
%TO.N,GND*%
X106750000Y-123750000D03*
%TO.P,J4,3,Pin_3*%
%TO.N,/bluetooth_module/TX*%
X106750000Y-121210000D03*
%TO.P,J4,4,Pin_4*%
%TO.N,/bluetooth_module/RX*%
X106750000Y-118670000D03*
%TD*%
D15*
%TO.P,R2,1*%
%TO.N,+3.3V*%
X170140000Y-109265000D03*
%TO.P,R2,2*%
%TO.N,/ethernet_module/TD-*%
X170140000Y-111090000D03*
%TD*%
%TO.P,R3,1*%
%TO.N,+3.3V*%
X167150000Y-109265000D03*
%TO.P,R3,2*%
%TO.N,/ethernet_module/RD+*%
X167150000Y-111090000D03*
%TD*%
D16*
%TO.P,J3,1,Pin_1*%
%TO.N,GND*%
X116350000Y-95780000D03*
D11*
%TO.P,J3,2,Pin_2*%
%TO.N,/SPI_module/RX*%
X118890000Y-95780000D03*
%TO.P,J3,3,Pin_3*%
%TO.N,/SPI_module/CSn*%
X116350000Y-98320000D03*
%TO.P,J3,4,Pin_4*%
%TO.N,/SPI_module/SCK*%
X118890000Y-98320000D03*
%TO.P,J3,5,Pin_5*%
%TO.N,/SPI_module/TX*%
X116350000Y-100860000D03*
%TO.P,J3,6,Pin_6*%
%TO.N,unconnected-(J3-Pin_6-Pad6)*%
X118890000Y-100860000D03*
%TO.P,J3,7*%
%TO.N,N/C*%
X116350000Y-103400000D03*
%TO.P,J3,8*%
X118890000Y-103400000D03*
%TD*%
D17*
%TO.P,R5,1*%
%TO.N,Net-(J2-Pad10)*%
X149122500Y-138990000D03*
%TO.P,R5,2*%
%TO.N,/ethernet_module/YLED-*%
X147297500Y-138990000D03*
%TD*%
D15*
%TO.P,R1,1*%
%TO.N,+3.3V*%
X173130000Y-109225000D03*
%TO.P,R1,2*%
%TO.N,/ethernet_module/TD+*%
X173130000Y-111050000D03*
%TD*%
%TO.P,R4,1*%
%TO.N,+3.3V*%
X164140000Y-109225000D03*
%TO.P,R4,2*%
%TO.N,/ethernet_module/RD-*%
X164140000Y-111050000D03*
%TD*%
D17*
%TO.P,R6,1*%
%TO.N,Net-(J2-Pad12)*%
X149122500Y-136450000D03*
%TO.P,R6,2*%
%TO.N,/ethernet_module/GLED-*%
X147297500Y-136450000D03*
%TD*%
D18*
%TO.P,J2,1,1*%
%TO.N,/ethernet_module/TD+*%
X171595000Y-130740000D03*
%TO.P,J2,2,2*%
%TO.N,+3.3V*%
X172865000Y-128200000D03*
%TO.P,J2,3,3*%
%TO.N,/ethernet_module/TD-*%
X174135000Y-130740000D03*
%TO.P,J2,4,4*%
%TO.N,/ethernet_module/RD+*%
X175405000Y-128200000D03*
%TO.P,J2,5,5*%
%TO.N,+3.3V*%
X176675000Y-130740000D03*
%TO.P,J2,6,6*%
%TO.N,/ethernet_module/RD-*%
X177945000Y-128200000D03*
%TO.P,J2,7,7*%
%TO.N,unconnected-(J2-Pad7)*%
X179215000Y-130740000D03*
%TO.P,J2,8,8*%
%TO.N,unconnected-(J2-Pad8)*%
X180485000Y-128200000D03*
D19*
%TO.P,J2,9,9*%
%TO.N,+3.3V*%
X169410000Y-141170000D03*
%TO.P,J2,10,10*%
%TO.N,Net-(J2-Pad10)*%
X171950000Y-141170000D03*
%TO.P,J2,11,11*%
%TO.N,+3.3V*%
X180130000Y-141170000D03*
%TO.P,J2,12,12*%
%TO.N,Net-(J2-Pad12)*%
X182670000Y-141170000D03*
D20*
%TO.P,J2,13,13*%
%TO.N,unconnected-(J2-Pad13)*%
X183785000Y-134040000D03*
%TO.P,J2,14,14*%
%TO.N,unconnected-(J2-Pad14)*%
X168295000Y-134040000D03*
%TD*%
D13*
%TO.P,P1,1,Pin_1*%
%TO.N,unconnected-(P1-Pin_1-Pad1)*%
X192910000Y-88120000D03*
D14*
%TO.P,P1,2,Pin_2*%
%TO.N,unconnected-(P1-Pin_2-Pad2)*%
X190370000Y-88120000D03*
%TO.P,P1,3,Pin_3*%
%TO.N,unconnected-(P1-Pin_3-Pad3)*%
X192910000Y-90660000D03*
%TO.P,P1,4,Pin_4*%
%TO.N,unconnected-(P1-Pin_4-Pad4)*%
X190370000Y-90660000D03*
%TO.P,P1,5,Pin_5*%
%TO.N,unconnected-(P1-Pin_5-Pad5)*%
X192910000Y-93200000D03*
%TO.P,P1,6,Pin_6*%
%TO.N,unconnected-(P1-Pin_6-Pad6)*%
X190370000Y-93200000D03*
%TO.P,P1,7,Pin_7*%
%TO.N,unconnected-(P1-Pin_7-Pad7)*%
X192910000Y-95740000D03*
%TO.P,P1,8,Pin_8*%
%TO.N,unconnected-(P1-Pin_8-Pad8)*%
X190370000Y-95740000D03*
%TO.P,P1,9,Pin_9*%
%TO.N,GND*%
X192910000Y-98280000D03*
%TO.P,P1,10,Pin_10*%
X190370000Y-98280000D03*
%TO.P,P1,11,Pin_11*%
%TO.N,+3.3V*%
X192910000Y-100820000D03*
%TO.P,P1,12,Pin_12*%
X190370000Y-100820000D03*
%TO.P,P1,13,Pin_13*%
%TO.N,unconnected-(P1-Pin_13-Pad13)*%
X192910000Y-103360000D03*
%TO.P,P1,14,Pin_14*%
%TO.N,unconnected-(P1-Pin_14-Pad14)*%
X190370000Y-103360000D03*
%TO.P,P1,15,Pin_15*%
%TO.N,GND*%
X192910000Y-105900000D03*
%TO.P,P1,16,Pin_16*%
%TO.N,+5V*%
X190370000Y-105900000D03*
%TO.P,P1,17,Pin_17*%
%TO.N,unconnected-(P1-Pin_17-Pad17)*%
X192910000Y-108440000D03*
%TO.P,P1,18,Pin_18*%
%TO.N,unconnected-(P1-Pin_18-Pad18)*%
X190370000Y-108440000D03*
%TO.P,P1,19,Pin_19*%
%TO.N,unconnected-(P1-Pin_19-Pad19)*%
X192910000Y-110980000D03*
%TO.P,P1,20,Pin_20*%
%TO.N,/ethernet_module/TD+*%
X190370000Y-110980000D03*
%TO.P,P1,21,Pin_21*%
%TO.N,unconnected-(P1-Pin_21-Pad21)*%
X192910000Y-113520000D03*
%TO.P,P1,22,Pin_22*%
%TO.N,/ethernet_module/TD-*%
X190370000Y-113520000D03*
%TO.P,P1,23,Pin_23*%
%TO.N,unconnected-(P1-Pin_23-Pad23)*%
X192910000Y-116060000D03*
%TO.P,P1,24,Pin_24*%
%TO.N,/ethernet_module/RD-*%
X190370000Y-116060000D03*
%TO.P,P1,25,Pin_25*%
%TO.N,unconnected-(P1-Pin_25-Pad25)*%
X192910000Y-118600000D03*
%TO.P,P1,26,Pin_26*%
%TO.N,/ethernet_module/RD+*%
X190370000Y-118600000D03*
%TO.P,P1,27,Pin_27*%
%TO.N,GND*%
X192910000Y-121140000D03*
%TO.P,P1,28,Pin_28*%
X190370000Y-121140000D03*
%TO.P,P1,29,Pin_29*%
%TO.N,+3.3V*%
X192910000Y-123680000D03*
%TO.P,P1,30,Pin_30*%
X190370000Y-123680000D03*
%TD*%
D13*
%TO.P,P5,1,Pin_1*%
%TO.N,/ethernet_module/YLED-*%
X134790000Y-138980000D03*
D14*
%TO.P,P5,2,Pin_2*%
%TO.N,/ethernet_module/GLED-*%
X134790000Y-136440000D03*
%TO.P,P5,3,Pin_3*%
%TO.N,unconnected-(P5-Pin_3-Pad3)*%
X132250000Y-138980000D03*
%TO.P,P5,4,Pin_4*%
%TO.N,unconnected-(P5-Pin_4-Pad4)*%
X132250000Y-136440000D03*
%TO.P,P5,5,Pin_5*%
%TO.N,unconnected-(P5-Pin_5-Pad5)*%
X129710000Y-138980000D03*
%TO.P,P5,6,Pin_6*%
%TO.N,unconnected-(P5-Pin_6-Pad6)*%
X129710000Y-136440000D03*
%TO.P,P5,7,Pin_7*%
%TO.N,unconnected-(P5-Pin_7-Pad7)*%
X127170000Y-138980000D03*
%TO.P,P5,8,Pin_8*%
%TO.N,unconnected-(P5-Pin_8-Pad8)*%
X127170000Y-136440000D03*
%TO.P,P5,9,Pin_9*%
%TO.N,GND*%
X124630000Y-138980000D03*
%TO.P,P5,10,Pin_10*%
X124630000Y-136440000D03*
%TO.P,P5,11,Pin_11*%
%TO.N,+3.3V*%
X122090000Y-138980000D03*
%TO.P,P5,12,Pin_12*%
X122090000Y-136440000D03*
%TO.P,P5,13,Pin_13*%
%TO.N,unconnected-(P5-Pin_13-Pad13)*%
X119550000Y-138980000D03*
%TO.P,P5,14,Pin_14*%
%TO.N,unconnected-(P5-Pin_14-Pad14)*%
X119550000Y-136440000D03*
%TO.P,P5,15,Pin_15*%
%TO.N,GND*%
X117010000Y-138980000D03*
%TO.P,P5,16,Pin_16*%
%TO.N,+5V*%
X117010000Y-136440000D03*
%TO.P,P5,17,Pin_17*%
%TO.N,unconnected-(P5-Pin_17-Pad17)*%
X114470000Y-138980000D03*
%TO.P,P5,18,Pin_18*%
%TO.N,unconnected-(P5-Pin_18-Pad18)*%
X114470000Y-136440000D03*
%TO.P,P5,19,Pin_19*%
%TO.N,unconnected-(P5-Pin_19-Pad19)*%
X111930000Y-138980000D03*
%TO.P,P5,20,Pin_20*%
%TO.N,unconnected-(P5-Pin_20-Pad20)*%
X111930000Y-136440000D03*
%TO.P,P5,21,Pin_21*%
%TO.N,unconnected-(P5-Pin_21-Pad21)*%
X109390000Y-138980000D03*
%TO.P,P5,22,Pin_22*%
%TO.N,unconnected-(P5-Pin_22-Pad22)*%
X109390000Y-136440000D03*
%TO.P,P5,23,Pin_23*%
%TO.N,unconnected-(P5-Pin_23-Pad23)*%
X106850000Y-138980000D03*
%TO.P,P5,24,Pin_24*%
%TO.N,unconnected-(P5-Pin_24-Pad24)*%
X106850000Y-136440000D03*
%TO.P,P5,25,Pin_25*%
%TO.N,unconnected-(P5-Pin_25-Pad25)*%
X104310000Y-138980000D03*
%TO.P,P5,26,Pin_26*%
%TO.N,unconnected-(P5-Pin_26-Pad26)*%
X104310000Y-136440000D03*
%TO.P,P5,27,Pin_27*%
%TO.N,GND*%
X101770000Y-138980000D03*
%TO.P,P5,28,Pin_28*%
X101770000Y-136440000D03*
%TO.P,P5,29,Pin_29*%
%TO.N,+3.3V*%
X99230000Y-138980000D03*
%TO.P,P5,30,Pin_30*%
X99230000Y-136440000D03*
%TD*%
D13*
%TO.P,P2,1,Pin_1*%
%TO.N,/screen_module/T_IRQ*%
X157380000Y-72880000D03*
D14*
%TO.P,P2,2,Pin_2*%
%TO.N,/screen_module/SDO(MISO)*%
X157380000Y-75420000D03*
%TO.P,P2,3,Pin_3*%
%TO.N,/screen_module/SDI(MOSI)*%
X159920000Y-72880000D03*
%TO.P,P2,4,Pin_4*%
%TO.N,/screen_module/T_CS*%
X159920000Y-75420000D03*
%TO.P,P2,5,Pin_5*%
%TO.N,/screen_module/SCK*%
X162460000Y-72880000D03*
%TO.P,P2,6,Pin_6*%
%TO.N,/screen_module/DC*%
X162460000Y-75420000D03*
%TO.P,P2,7,Pin_7*%
%TO.N,/screen_module/CS*%
X165000000Y-72880000D03*
%TO.P,P2,8,Pin_8*%
%TO.N,unconnected-(P2-Pin_8-Pad8)*%
X165000000Y-75420000D03*
%TO.P,P2,9,Pin_9*%
%TO.N,GND*%
X167540000Y-72880000D03*
%TO.P,P2,10,Pin_10*%
X167540000Y-75420000D03*
%TO.P,P2,11,Pin_11*%
%TO.N,+3.3V*%
X170080000Y-72880000D03*
%TO.P,P2,12,Pin_12*%
X170080000Y-75420000D03*
%TO.P,P2,13,Pin_13*%
%TO.N,unconnected-(P2-Pin_13-Pad13)*%
X172620000Y-72880000D03*
%TO.P,P2,14,Pin_14*%
%TO.N,unconnected-(P2-Pin_14-Pad14)*%
X172620000Y-75420000D03*
%TO.P,P2,15,Pin_15*%
%TO.N,GND*%
X175160000Y-72880000D03*
%TO.P,P2,16,Pin_16*%
%TO.N,+5V*%
X175160000Y-75420000D03*
%TO.P,P2,17,Pin_17*%
%TO.N,unconnected-(P2-Pin_17-Pad17)*%
X177700000Y-72880000D03*
%TO.P,P2,18,Pin_18*%
%TO.N,unconnected-(P2-Pin_18-Pad18)*%
X177700000Y-75420000D03*
%TO.P,P2,19,Pin_19*%
%TO.N,unconnected-(P2-Pin_19-Pad19)*%
X180240000Y-72880000D03*
%TO.P,P2,20,Pin_20*%
%TO.N,unconnected-(P2-Pin_20-Pad20)*%
X180240000Y-75420000D03*
%TO.P,P2,21,Pin_21*%
%TO.N,unconnected-(P2-Pin_21-Pad21)*%
X182780000Y-72880000D03*
%TO.P,P2,22,Pin_22*%
%TO.N,unconnected-(P2-Pin_22-Pad22)*%
X182780000Y-75420000D03*
%TO.P,P2,23,Pin_23*%
%TO.N,unconnected-(P2-Pin_23-Pad23)*%
X185320000Y-72880000D03*
%TO.P,P2,24,Pin_24*%
%TO.N,unconnected-(P2-Pin_24-Pad24)*%
X185320000Y-75420000D03*
%TO.P,P2,25,Pin_25*%
%TO.N,unconnected-(P2-Pin_25-Pad25)*%
X187860000Y-72880000D03*
%TO.P,P2,26,Pin_26*%
%TO.N,unconnected-(P2-Pin_26-Pad26)*%
X187860000Y-75420000D03*
%TO.P,P2,27,Pin_27*%
%TO.N,GND*%
X190400000Y-72880000D03*
%TO.P,P2,28,Pin_28*%
X190400000Y-75420000D03*
%TO.P,P2,29,Pin_29*%
%TO.N,+3.3V*%
X192940000Y-72880000D03*
%TO.P,P2,30,Pin_30*%
X192940000Y-75420000D03*
%TD*%
D13*
%TO.P,P4,1,Pin_1*%
%TO.N,unconnected-(P4-Pin_1-Pad1)*%
X99190000Y-123740000D03*
D14*
%TO.P,P4,2,Pin_2*%
%TO.N,unconnected-(P4-Pin_2-Pad2)*%
X101730000Y-123740000D03*
%TO.P,P4,3,Pin_3*%
%TO.N,unconnected-(P4-Pin_3-Pad3)*%
X99190000Y-121200000D03*
%TO.P,P4,4,Pin_4*%
%TO.N,/bluetooth_module/TX*%
X101730000Y-121200000D03*
%TO.P,P4,5,Pin_5*%
%TO.N,unconnected-(P4-Pin_5-Pad5)*%
X99190000Y-118660000D03*
%TO.P,P4,6,Pin_6*%
%TO.N,/bluetooth_module/RX*%
X101730000Y-118660000D03*
%TO.P,P4,7,Pin_7*%
%TO.N,unconnected-(P4-Pin_7-Pad7)*%
X99190000Y-116120000D03*
%TO.P,P4,8,Pin_8*%
%TO.N,unconnected-(P4-Pin_8-Pad8)*%
X101730000Y-116120000D03*
%TO.P,P4,9,Pin_9*%
%TO.N,GND*%
X99190000Y-113580000D03*
%TO.P,P4,10,Pin_10*%
X101730000Y-113580000D03*
%TO.P,P4,11,Pin_11*%
%TO.N,+3.3V*%
X99190000Y-111040000D03*
%TO.P,P4,12,Pin_12*%
X101730000Y-111040000D03*
%TO.P,P4,13,Pin_13*%
%TO.N,unconnected-(P4-Pin_13-Pad13)*%
X99190000Y-108500000D03*
%TO.P,P4,14,Pin_14*%
%TO.N,unconnected-(P4-Pin_14-Pad14)*%
X101730000Y-108500000D03*
%TO.P,P4,15,Pin_15*%
%TO.N,GND*%
X99190000Y-105960000D03*
%TO.P,P4,16,Pin_16*%
%TO.N,+5V*%
X101730000Y-105960000D03*
%TO.P,P4,17,Pin_17*%
%TO.N,unconnected-(P4-Pin_17-Pad17)*%
X99190000Y-103420000D03*
%TO.P,P4,18,Pin_18*%
%TO.N,unconnected-(P4-Pin_18-Pad18)*%
X101730000Y-103420000D03*
%TO.P,P4,19,Pin_19*%
%TO.N,unconnected-(P4-Pin_19-Pad19)*%
X99190000Y-100880000D03*
%TO.P,P4,20,Pin_20*%
%TO.N,/SPI_module/TX*%
X101730000Y-100880000D03*
%TO.P,P4,21,Pin_21*%
%TO.N,unconnected-(P4-Pin_21-Pad21)*%
X99190000Y-98340000D03*
%TO.P,P4,22,Pin_22*%
%TO.N,/SPI_module/CSn*%
X101730000Y-98340000D03*
%TO.P,P4,23,Pin_23*%
%TO.N,unconnected-(P4-Pin_23-Pad23)*%
X99190000Y-95800000D03*
%TO.P,P4,24,Pin_24*%
%TO.N,/SPI_module/RX*%
X101730000Y-95800000D03*
%TO.P,P4,25,Pin_25*%
%TO.N,unconnected-(P4-Pin_25-Pad25)*%
X99190000Y-93260000D03*
%TO.P,P4,26,Pin_26*%
%TO.N,/SPI_module/SCK*%
X101730000Y-93260000D03*
%TO.P,P4,27,Pin_27*%
%TO.N,GND*%
X99190000Y-90720000D03*
%TO.P,P4,28,Pin_28*%
X101730000Y-90720000D03*
%TO.P,P4,29,Pin_29*%
%TO.N,+3.3V*%
X99190000Y-88180000D03*
%TO.P,P4,30,Pin_30*%
X101730000Y-88180000D03*
%TD*%
D13*
%TO.P,P3,1,Pin_1*%
%TO.N,unconnected-(P3-Pin_1-Pad1)*%
X99180000Y-72960000D03*
D14*
%TO.P,P3,2,Pin_2*%
%TO.N,unconnected-(P3-Pin_2-Pad2)*%
X99180000Y-75500000D03*
%TO.P,P3,3,Pin_3*%
%TO.N,unconnected-(P3-Pin_3-Pad3)*%
X101720000Y-72960000D03*
%TO.P,P3,4,Pin_4*%
%TO.N,unconnected-(P3-Pin_4-Pad4)*%
X101720000Y-75500000D03*
%TO.P,P3,5,Pin_5*%
%TO.N,unconnected-(P3-Pin_5-Pad5)*%
X104260000Y-72960000D03*
%TO.P,P3,6,Pin_6*%
%TO.N,unconnected-(P3-Pin_6-Pad6)*%
X104260000Y-75500000D03*
%TO.P,P3,7,Pin_7*%
%TO.N,unconnected-(P3-Pin_7-Pad7)*%
X106800000Y-72960000D03*
%TO.P,P3,8,Pin_8*%
%TO.N,unconnected-(P3-Pin_8-Pad8)*%
X106800000Y-75500000D03*
%TO.P,P3,9,Pin_9*%
%TO.N,GND*%
X109340000Y-72960000D03*
%TO.P,P3,10,Pin_10*%
X109340000Y-75500000D03*
%TO.P,P3,11,Pin_11*%
%TO.N,+3.3V*%
X111880000Y-72960000D03*
%TO.P,P3,12,Pin_12*%
X111880000Y-75500000D03*
%TO.P,P3,13,Pin_13*%
%TO.N,unconnected-(P3-Pin_13-Pad13)*%
X114420000Y-72960000D03*
%TO.P,P3,14,Pin_14*%
%TO.N,unconnected-(P3-Pin_14-Pad14)*%
X114420000Y-75500000D03*
%TO.P,P3,15,Pin_15*%
%TO.N,GND*%
X116960000Y-72960000D03*
%TO.P,P3,16,Pin_16*%
%TO.N,+5V*%
X116960000Y-75500000D03*
%TO.P,P3,17,Pin_17*%
%TO.N,unconnected-(P3-Pin_17-Pad17)*%
X119500000Y-72960000D03*
%TO.P,P3,18,Pin_18*%
%TO.N,unconnected-(P3-Pin_18-Pad18)*%
X119500000Y-75500000D03*
%TO.P,P3,19,Pin_19*%
%TO.N,unconnected-(P3-Pin_19-Pad19)*%
X122040000Y-72960000D03*
%TO.P,P3,20,Pin_20*%
%TO.N,unconnected-(P3-Pin_20-Pad20)*%
X122040000Y-75500000D03*
%TO.P,P3,21,Pin_21*%
%TO.N,unconnected-(P3-Pin_21-Pad21)*%
X124580000Y-72960000D03*
%TO.P,P3,22,Pin_22*%
%TO.N,unconnected-(P3-Pin_22-Pad22)*%
X124580000Y-75500000D03*
%TO.P,P3,23,Pin_23*%
%TO.N,unconnected-(P3-Pin_23-Pad23)*%
X127120000Y-72960000D03*
%TO.P,P3,24,Pin_24*%
%TO.N,unconnected-(P3-Pin_24-Pad24)*%
X127120000Y-75500000D03*
%TO.P,P3,25,Pin_25*%
%TO.N,unconnected-(P3-Pin_25-Pad25)*%
X129660000Y-72960000D03*
%TO.P,P3,26,Pin_26*%
%TO.N,unconnected-(P3-Pin_26-Pad26)*%
X129660000Y-75500000D03*
%TO.P,P3,27,Pin_27*%
%TO.N,GND*%
X132200000Y-72960000D03*
%TO.P,P3,28,Pin_28*%
X132200000Y-75500000D03*
%TO.P,P3,29,Pin_29*%
%TO.N,+3.3V*%
X134740000Y-72960000D03*
%TO.P,P3,30,Pin_30*%
X134740000Y-75500000D03*
%TD*%
D21*
%TO.N,/ethernet_module/TD-*%
X170140000Y-112540000D03*
%TO.N,/ethernet_module/RD+*%
X167160000Y-114560000D03*
%TO.N,/ethernet_module/RD-*%
X164130000Y-113440000D03*
%TO.N,Net-(J2-Pad10)*%
X152070000Y-139000000D03*
%TO.N,Net-(J2-Pad12)*%
X152070000Y-136430000D03*
%TD*%
D22*
%TO.N,/screen_module/T_IRQ*%
X145770000Y-84490000D02*
X157380000Y-72880000D01*
X146920000Y-95150000D02*
X145770000Y-94000000D01*
X145770000Y-94000000D02*
X145770000Y-84490000D01*
%TO.N,/screen_module/T_CS*%
X149460000Y-92610000D02*
X149460000Y-85880000D01*
X149460000Y-85880000D02*
X159920000Y-75420000D01*
%TO.N,/screen_module/SDO(MISO)*%
X150730000Y-93880000D02*
X152000000Y-92610000D01*
X148190000Y-93880000D02*
X150730000Y-93880000D01*
X146920000Y-85880000D02*
X157380000Y-75420000D01*
X146920000Y-92610000D02*
X146920000Y-85880000D01*
X146920000Y-92610000D02*
X148190000Y-93880000D01*
%TO.N,/screen_module/SCK*%
X161180000Y-75940000D02*
X161180000Y-74160000D01*
X161180000Y-74160000D02*
X162460000Y-72880000D01*
X154540000Y-82580000D02*
X161180000Y-75940000D01*
X152000000Y-95150000D02*
X154540000Y-92610000D01*
X154540000Y-92610000D02*
X154540000Y-82580000D01*
%TO.N,/screen_module/SDI(MOSI)*%
X155680000Y-71400000D02*
X158440000Y-71400000D01*
X148070000Y-96540000D02*
X145970000Y-96540000D01*
X155540000Y-96690000D02*
X151000000Y-96690000D01*
X157080000Y-95150000D02*
X155540000Y-96690000D01*
X158440000Y-71400000D02*
X159920000Y-72880000D01*
X145970000Y-96540000D02*
X144950000Y-95520000D01*
X144950000Y-82130000D02*
X155680000Y-71400000D01*
X144950000Y-95520000D02*
X144950000Y-82130000D01*
X149460000Y-95150000D02*
X148070000Y-96540000D01*
X151000000Y-96690000D02*
X149460000Y-95150000D01*
%TO.N,/screen_module/DC*%
X157080000Y-92610000D02*
X157080000Y-81320000D01*
X162415686Y-75984314D02*
X162415686Y-75420000D01*
X157080000Y-81320000D02*
X162415686Y-75984314D01*
%TO.N,/screen_module/CS*%
X159620000Y-92610000D02*
X159620000Y-79990000D01*
X163730000Y-74150000D02*
X165000000Y-72880000D01*
X159620000Y-79990000D02*
X163730000Y-75880000D01*
X163730000Y-75880000D02*
X163730000Y-74150000D01*
%TO.N,/ethernet_module/TD+*%
X173200000Y-110980000D02*
X190370000Y-110980000D01*
X171595000Y-130740000D02*
X171595000Y-126915000D01*
X173130000Y-111050000D02*
X173200000Y-110980000D01*
X171595000Y-126915000D02*
X187530000Y-110980000D01*
X187530000Y-110980000D02*
X190370000Y-110980000D01*
D23*
%TO.N,+3.3V*%
X99190000Y-111040000D02*
X101730000Y-111040000D01*
X134740000Y-72960000D02*
X136990000Y-70710000D01*
X170140000Y-109265000D02*
X173090000Y-109265000D01*
X113440000Y-71400000D02*
X111880000Y-72960000D01*
X192910000Y-100820000D02*
X194490000Y-102400000D01*
X167110000Y-109225000D02*
X167150000Y-109265000D01*
X190370000Y-100820000D02*
X192910000Y-100820000D01*
X192940000Y-72880000D02*
X191440000Y-71380000D01*
X97620000Y-109470000D02*
X97620000Y-89750000D01*
X176020000Y-137060000D02*
X180130000Y-141170000D01*
X169410000Y-141170000D02*
X173520000Y-137060000D01*
X133180000Y-71400000D02*
X113440000Y-71400000D01*
X172865000Y-135145000D02*
X174780000Y-137060000D01*
X172865000Y-132230000D02*
X175185000Y-132230000D01*
X99230000Y-136440000D02*
X97340000Y-134550000D01*
X181965000Y-109225000D02*
X190370000Y-100820000D01*
X173130000Y-109225000D02*
X181965000Y-109225000D01*
X162160000Y-92610000D02*
X162160000Y-83340000D01*
X154540000Y-95150000D02*
X155800000Y-93890000D01*
X194490000Y-102400000D02*
X194490000Y-122100000D01*
X172865000Y-128200000D02*
X172865000Y-132230000D01*
X194680000Y-77160000D02*
X194680000Y-99050000D01*
X194680000Y-99050000D02*
X192910000Y-100820000D01*
X122090000Y-138980000D02*
X120510000Y-140560000D01*
X159620000Y-95150000D02*
X162160000Y-92610000D01*
X171580000Y-71380000D02*
X170080000Y-72880000D01*
X176675000Y-130740000D02*
X178145000Y-132210000D01*
X136990000Y-70710000D02*
X167910000Y-70710000D01*
X99230000Y-136440000D02*
X99230000Y-138980000D01*
X191440000Y-71380000D02*
X171580000Y-71380000D01*
X167910000Y-70710000D02*
X170080000Y-72880000D01*
X99190000Y-111040000D02*
X97620000Y-109470000D01*
X155800000Y-93890000D02*
X158360000Y-93890000D01*
X100810000Y-140560000D02*
X99230000Y-138980000D01*
X97340000Y-112890000D02*
X99190000Y-111040000D01*
X111880000Y-78030000D02*
X101730000Y-88180000D01*
X170080000Y-75420000D02*
X170080000Y-72880000D01*
X175185000Y-132230000D02*
X176675000Y-130740000D01*
X173520000Y-137060000D02*
X174780000Y-137060000D01*
X122090000Y-138980000D02*
X122090000Y-136440000D01*
X162160000Y-83340000D02*
X170080000Y-75420000D01*
X167150000Y-109265000D02*
X170140000Y-109265000D01*
X134740000Y-75500000D02*
X134740000Y-72960000D01*
X192940000Y-72880000D02*
X192940000Y-75420000D01*
X97340000Y-134550000D02*
X97340000Y-112890000D01*
X181840000Y-132210000D02*
X190370000Y-123680000D01*
X99190000Y-88180000D02*
X101730000Y-88180000D01*
X172865000Y-132230000D02*
X172865000Y-135145000D01*
X134740000Y-72960000D02*
X133180000Y-71400000D01*
X111880000Y-75500000D02*
X111880000Y-78030000D01*
X97620000Y-89750000D02*
X99190000Y-88180000D01*
X174780000Y-137060000D02*
X176020000Y-137060000D01*
X120510000Y-140560000D02*
X100810000Y-140560000D01*
X158360000Y-93890000D02*
X159620000Y-95150000D01*
X190370000Y-123680000D02*
X192910000Y-123680000D01*
X194490000Y-122100000D02*
X192910000Y-123680000D01*
X106750000Y-126290000D02*
X106750000Y-128920000D01*
X192940000Y-75420000D02*
X194680000Y-77160000D01*
X178145000Y-132210000D02*
X181840000Y-132210000D01*
X111880000Y-75500000D02*
X111880000Y-72960000D01*
X106750000Y-128920000D02*
X99230000Y-136440000D01*
X164140000Y-109225000D02*
X167110000Y-109225000D01*
X173090000Y-109265000D02*
X173130000Y-109225000D01*
D22*
%TO.N,/ethernet_module/TD-*%
X170140000Y-111090000D02*
X170140000Y-112540000D01*
X174135000Y-127455000D02*
X188070000Y-113520000D01*
X188070000Y-113520000D02*
X190370000Y-113520000D01*
X174135000Y-130740000D02*
X174135000Y-127455000D01*
%TO.N,/ethernet_module/RD+*%
X185500000Y-123470000D02*
X190370000Y-118600000D01*
X176705000Y-129500000D02*
X181350000Y-129500000D01*
X167150000Y-111090000D02*
X167150000Y-114550000D01*
X181350000Y-129500000D02*
X185500000Y-125350000D01*
X167150000Y-114550000D02*
X167160000Y-114560000D01*
X175405000Y-128200000D02*
X176705000Y-129500000D01*
X185500000Y-125350000D02*
X185500000Y-123470000D01*
%TO.N,/ethernet_module/RD-*%
X164140000Y-113430000D02*
X164130000Y-113440000D01*
X177945000Y-128200000D02*
X190085000Y-116060000D01*
X190085000Y-116060000D02*
X190370000Y-116060000D01*
X164140000Y-111050000D02*
X164140000Y-113430000D01*
%TO.N,Net-(J2-Pad10)*%
X152060000Y-138990000D02*
X152070000Y-139000000D01*
X149122500Y-138990000D02*
X152060000Y-138990000D01*
%TO.N,Net-(J2-Pad12)*%
X152050000Y-136450000D02*
X152070000Y-136430000D01*
X149122500Y-136450000D02*
X152050000Y-136450000D01*
%TO.N,/SPI_module/RX*%
X118890000Y-95780000D02*
X117400000Y-94290000D01*
X103240000Y-94290000D02*
X101730000Y-95800000D01*
X117400000Y-94290000D02*
X103240000Y-94290000D01*
%TO.N,/SPI_module/CSn*%
X101750000Y-98320000D02*
X101730000Y-98340000D01*
X116350000Y-98320000D02*
X101750000Y-98320000D01*
%TO.N,/SPI_module/SCK*%
X120370000Y-94900000D02*
X118730000Y-93260000D01*
X120370000Y-96840000D02*
X120370000Y-94900000D01*
X118890000Y-98320000D02*
X120370000Y-96840000D01*
X118730000Y-93260000D02*
X101730000Y-93260000D01*
%TO.N,/SPI_module/TX*%
X116350000Y-100860000D02*
X101750000Y-100860000D01*
X101750000Y-100860000D02*
X101730000Y-100880000D01*
%TO.N,/bluetooth_module/RX*%
X101740000Y-118670000D02*
X101730000Y-118660000D01*
X106750000Y-118670000D02*
X101740000Y-118670000D01*
X101880000Y-118810000D02*
X101730000Y-118660000D01*
%TO.N,/bluetooth_module/TX*%
X101740000Y-121210000D02*
X101730000Y-121200000D01*
X101880000Y-121350000D02*
X101730000Y-121200000D01*
X106750000Y-121210000D02*
X101740000Y-121210000D01*
%TO.N,/ethernet_module/YLED-*%
X134790000Y-138980000D02*
X147287500Y-138980000D01*
X147287500Y-138980000D02*
X147297500Y-138990000D01*
%TO.N,/ethernet_module/GLED-*%
X134790000Y-136440000D02*
X147287500Y-136440000D01*
X147287500Y-136440000D02*
X147297500Y-136450000D01*
%TD*%
M02*
