%TF.GenerationSoftware,KiCad,Pcbnew,7.0.1*%
%TF.CreationDate,2023-05-11T10:15:00-05:00*%
%TF.ProjectId,i5ether,69356574-6865-4722-9e6b-696361645f70,rev?*%
%TF.SameCoordinates,Original*%
%TF.FileFunction,Legend,Bot*%
%TF.FilePolarity,Positive*%
%FSLAX46Y46*%
G04 Gerber Fmt 4.6, Leading zero omitted, Abs format (unit mm)*
G04 Created by KiCad (PCBNEW 7.0.1) date 2023-05-11 10:15:00*
%MOMM*%
%LPD*%
G01*
G04 APERTURE LIST*
%ADD10C,0.150000*%
%ADD11C,0.120000*%
G04 APERTURE END LIST*
D10*
%TO.C,P1*%
X192378094Y-86252619D02*
X192378094Y-85252619D01*
X192378094Y-85252619D02*
X191997142Y-85252619D01*
X191997142Y-85252619D02*
X191901904Y-85300238D01*
X191901904Y-85300238D02*
X191854285Y-85347857D01*
X191854285Y-85347857D02*
X191806666Y-85443095D01*
X191806666Y-85443095D02*
X191806666Y-85585952D01*
X191806666Y-85585952D02*
X191854285Y-85681190D01*
X191854285Y-85681190D02*
X191901904Y-85728809D01*
X191901904Y-85728809D02*
X191997142Y-85776428D01*
X191997142Y-85776428D02*
X192378094Y-85776428D01*
X190854285Y-86252619D02*
X191425713Y-86252619D01*
X191139999Y-86252619D02*
X191139999Y-85252619D01*
X191139999Y-85252619D02*
X191235237Y-85395476D01*
X191235237Y-85395476D02*
X191330475Y-85490714D01*
X191330475Y-85490714D02*
X191425713Y-85538333D01*
%TO.C,P5*%
X137582619Y-136971905D02*
X136582619Y-136971905D01*
X136582619Y-136971905D02*
X136582619Y-137352857D01*
X136582619Y-137352857D02*
X136630238Y-137448095D01*
X136630238Y-137448095D02*
X136677857Y-137495714D01*
X136677857Y-137495714D02*
X136773095Y-137543333D01*
X136773095Y-137543333D02*
X136915952Y-137543333D01*
X136915952Y-137543333D02*
X137011190Y-137495714D01*
X137011190Y-137495714D02*
X137058809Y-137448095D01*
X137058809Y-137448095D02*
X137106428Y-137352857D01*
X137106428Y-137352857D02*
X137106428Y-136971905D01*
X136582619Y-138448095D02*
X136582619Y-137971905D01*
X136582619Y-137971905D02*
X137058809Y-137924286D01*
X137058809Y-137924286D02*
X137011190Y-137971905D01*
X137011190Y-137971905D02*
X136963571Y-138067143D01*
X136963571Y-138067143D02*
X136963571Y-138305238D01*
X136963571Y-138305238D02*
X137011190Y-138400476D01*
X137011190Y-138400476D02*
X137058809Y-138448095D01*
X137058809Y-138448095D02*
X137154047Y-138495714D01*
X137154047Y-138495714D02*
X137392142Y-138495714D01*
X137392142Y-138495714D02*
X137487380Y-138448095D01*
X137487380Y-138448095D02*
X137535000Y-138400476D01*
X137535000Y-138400476D02*
X137582619Y-138305238D01*
X137582619Y-138305238D02*
X137582619Y-138067143D01*
X137582619Y-138067143D02*
X137535000Y-137971905D01*
X137535000Y-137971905D02*
X137487380Y-137924286D01*
%TO.C,P2*%
X155512619Y-73411905D02*
X154512619Y-73411905D01*
X154512619Y-73411905D02*
X154512619Y-73792857D01*
X154512619Y-73792857D02*
X154560238Y-73888095D01*
X154560238Y-73888095D02*
X154607857Y-73935714D01*
X154607857Y-73935714D02*
X154703095Y-73983333D01*
X154703095Y-73983333D02*
X154845952Y-73983333D01*
X154845952Y-73983333D02*
X154941190Y-73935714D01*
X154941190Y-73935714D02*
X154988809Y-73888095D01*
X154988809Y-73888095D02*
X155036428Y-73792857D01*
X155036428Y-73792857D02*
X155036428Y-73411905D01*
X154607857Y-74364286D02*
X154560238Y-74411905D01*
X154560238Y-74411905D02*
X154512619Y-74507143D01*
X154512619Y-74507143D02*
X154512619Y-74745238D01*
X154512619Y-74745238D02*
X154560238Y-74840476D01*
X154560238Y-74840476D02*
X154607857Y-74888095D01*
X154607857Y-74888095D02*
X154703095Y-74935714D01*
X154703095Y-74935714D02*
X154798333Y-74935714D01*
X154798333Y-74935714D02*
X154941190Y-74888095D01*
X154941190Y-74888095D02*
X155512619Y-74316667D01*
X155512619Y-74316667D02*
X155512619Y-74935714D01*
%TO.C,P4*%
X101198094Y-126532619D02*
X101198094Y-125532619D01*
X101198094Y-125532619D02*
X100817142Y-125532619D01*
X100817142Y-125532619D02*
X100721904Y-125580238D01*
X100721904Y-125580238D02*
X100674285Y-125627857D01*
X100674285Y-125627857D02*
X100626666Y-125723095D01*
X100626666Y-125723095D02*
X100626666Y-125865952D01*
X100626666Y-125865952D02*
X100674285Y-125961190D01*
X100674285Y-125961190D02*
X100721904Y-126008809D01*
X100721904Y-126008809D02*
X100817142Y-126056428D01*
X100817142Y-126056428D02*
X101198094Y-126056428D01*
X99769523Y-125865952D02*
X99769523Y-126532619D01*
X100007618Y-125485000D02*
X100245713Y-126199285D01*
X100245713Y-126199285D02*
X99626666Y-126199285D01*
%TO.C,P3*%
X97312619Y-73491905D02*
X96312619Y-73491905D01*
X96312619Y-73491905D02*
X96312619Y-73872857D01*
X96312619Y-73872857D02*
X96360238Y-73968095D01*
X96360238Y-73968095D02*
X96407857Y-74015714D01*
X96407857Y-74015714D02*
X96503095Y-74063333D01*
X96503095Y-74063333D02*
X96645952Y-74063333D01*
X96645952Y-74063333D02*
X96741190Y-74015714D01*
X96741190Y-74015714D02*
X96788809Y-73968095D01*
X96788809Y-73968095D02*
X96836428Y-73872857D01*
X96836428Y-73872857D02*
X96836428Y-73491905D01*
X96312619Y-74396667D02*
X96312619Y-75015714D01*
X96312619Y-75015714D02*
X96693571Y-74682381D01*
X96693571Y-74682381D02*
X96693571Y-74825238D01*
X96693571Y-74825238D02*
X96741190Y-74920476D01*
X96741190Y-74920476D02*
X96788809Y-74968095D01*
X96788809Y-74968095D02*
X96884047Y-75015714D01*
X96884047Y-75015714D02*
X97122142Y-75015714D01*
X97122142Y-75015714D02*
X97217380Y-74968095D01*
X97217380Y-74968095D02*
X97265000Y-74920476D01*
X97265000Y-74920476D02*
X97312619Y-74825238D01*
X97312619Y-74825238D02*
X97312619Y-74539524D01*
X97312619Y-74539524D02*
X97265000Y-74444286D01*
X97265000Y-74444286D02*
X97217380Y-74396667D01*
D11*
%TO.C,P1*%
X194240000Y-125010000D02*
X189040000Y-125010000D01*
X194240000Y-89390000D02*
X194240000Y-125010000D01*
X194240000Y-89390000D02*
X191640000Y-89390000D01*
X194240000Y-88120000D02*
X194240000Y-86790000D01*
X194240000Y-86790000D02*
X192910000Y-86790000D01*
X191640000Y-89390000D02*
X191640000Y-86790000D01*
X191640000Y-86790000D02*
X189040000Y-86790000D01*
X189040000Y-86790000D02*
X189040000Y-125010000D01*
%TO.C,P5*%
X97900000Y-140310000D02*
X97900000Y-135110000D01*
X133520000Y-140310000D02*
X97900000Y-140310000D01*
X133520000Y-140310000D02*
X133520000Y-137710000D01*
X134790000Y-140310000D02*
X136120000Y-140310000D01*
X136120000Y-140310000D02*
X136120000Y-138980000D01*
X133520000Y-137710000D02*
X136120000Y-137710000D01*
X136120000Y-137710000D02*
X136120000Y-135110000D01*
X136120000Y-135110000D02*
X97900000Y-135110000D01*
%TO.C,P2*%
X194270000Y-71550000D02*
X194270000Y-76750000D01*
X158650000Y-71550000D02*
X194270000Y-71550000D01*
X158650000Y-71550000D02*
X158650000Y-74150000D01*
X157380000Y-71550000D02*
X156050000Y-71550000D01*
X156050000Y-71550000D02*
X156050000Y-72880000D01*
X158650000Y-74150000D02*
X156050000Y-74150000D01*
X156050000Y-74150000D02*
X156050000Y-76750000D01*
X156050000Y-76750000D02*
X194270000Y-76750000D01*
%TO.C,P4*%
X97860000Y-86850000D02*
X103060000Y-86850000D01*
X97860000Y-122470000D02*
X97860000Y-86850000D01*
X97860000Y-122470000D02*
X100460000Y-122470000D01*
X97860000Y-123740000D02*
X97860000Y-125070000D01*
X97860000Y-125070000D02*
X99190000Y-125070000D01*
X100460000Y-122470000D02*
X100460000Y-125070000D01*
X100460000Y-125070000D02*
X103060000Y-125070000D01*
X103060000Y-125070000D02*
X103060000Y-86850000D01*
%TO.C,P3*%
X136070000Y-71630000D02*
X136070000Y-76830000D01*
X100450000Y-71630000D02*
X136070000Y-71630000D01*
X100450000Y-71630000D02*
X100450000Y-74230000D01*
X99180000Y-71630000D02*
X97850000Y-71630000D01*
X97850000Y-71630000D02*
X97850000Y-72960000D01*
X100450000Y-74230000D02*
X97850000Y-74230000D01*
X97850000Y-74230000D02*
X97850000Y-76830000D01*
X97850000Y-76830000D02*
X136070000Y-76830000D01*
%TD*%
M02*
