M48
; DRILL file {KiCad 7.0.1} date Thu May 11 10:13:17 2023
; FORMAT={-:-/ absolute / metric / decimal}
; #@! TF.CreationDate,2023-05-11T10:13:17-05:00
; #@! TF.GenerationSoftware,Kicad,Pcbnew,7.0.1
; #@! TF.FileFunction,Plated,1,2,PTH
FMAT,2
METRIC
; #@! TA.AperFunction,Plated,PTH,ViaDrill
T1C0.300
; #@! TA.AperFunction,Plated,PTH,ComponentDrill
T2C0.900
; #@! TA.AperFunction,Plated,PTH,ComponentDrill
T3C1.000
; #@! TA.AperFunction,Plated,PTH,ComponentDrill
T4C1.020
; #@! TA.AperFunction,Plated,PTH,ComponentDrill
T5C1.600
; #@! TA.AperFunction,Plated,PTH,ComponentDrill
T6C2.690
%
G90
G05
T1
X152.07Y-136.43
X152.07Y-139.0
X164.13Y-113.44
X167.16Y-114.56
X170.14Y-112.54
T2
X171.595Y-130.74
X172.865Y-128.2
X174.135Y-130.74
X175.405Y-128.2
X176.675Y-130.74
X177.945Y-128.2
X179.215Y-130.74
X180.485Y-128.2
T3
X99.18Y-72.96
X99.18Y-75.5
X99.19Y-88.18
X99.19Y-90.72
X99.19Y-93.26
X99.19Y-95.8
X99.19Y-98.34
X99.19Y-100.88
X99.19Y-103.42
X99.19Y-105.96
X99.19Y-108.5
X99.19Y-111.04
X99.19Y-113.58
X99.19Y-116.12
X99.19Y-118.66
X99.19Y-121.2
X99.19Y-123.74
X99.23Y-136.44
X99.23Y-138.98
X101.72Y-72.96
X101.72Y-75.5
X101.73Y-88.18
X101.73Y-90.72
X101.73Y-93.26
X101.73Y-95.8
X101.73Y-98.34
X101.73Y-100.88
X101.73Y-103.42
X101.73Y-105.96
X101.73Y-108.5
X101.73Y-111.04
X101.73Y-113.58
X101.73Y-116.12
X101.73Y-118.66
X101.73Y-121.2
X101.73Y-123.74
X101.77Y-136.44
X101.77Y-138.98
X104.26Y-72.96
X104.26Y-75.5
X104.31Y-136.44
X104.31Y-138.98
X106.75Y-118.67
X106.75Y-121.21
X106.75Y-123.75
X106.75Y-126.29
X106.8Y-72.96
X106.8Y-75.5
X106.85Y-136.44
X106.85Y-138.98
X109.34Y-72.96
X109.34Y-75.5
X109.39Y-136.44
X109.39Y-138.98
X111.88Y-72.96
X111.88Y-75.5
X111.93Y-136.44
X111.93Y-138.98
X114.42Y-72.96
X114.42Y-75.5
X114.47Y-136.44
X114.47Y-138.98
X116.35Y-95.78
X116.35Y-98.32
X116.35Y-100.86
X116.35Y-103.4
X116.96Y-72.96
X116.96Y-75.5
X117.01Y-136.44
X117.01Y-138.98
X118.89Y-95.78
X118.89Y-98.32
X118.89Y-100.86
X118.89Y-103.4
X119.5Y-72.96
X119.5Y-75.5
X119.55Y-136.44
X119.55Y-138.98
X122.04Y-72.96
X122.04Y-75.5
X122.09Y-136.44
X122.09Y-138.98
X124.58Y-72.96
X124.58Y-75.5
X124.63Y-136.44
X124.63Y-138.98
X127.12Y-72.96
X127.12Y-75.5
X127.17Y-136.44
X127.17Y-138.98
X129.66Y-72.96
X129.66Y-75.5
X129.71Y-136.44
X129.71Y-138.98
X132.2Y-72.96
X132.2Y-75.5
X132.25Y-136.44
X132.25Y-138.98
X134.74Y-72.96
X134.74Y-75.5
X134.79Y-136.44
X134.79Y-138.98
X146.92Y-92.61
X146.92Y-95.15
X149.46Y-92.61
X149.46Y-95.15
X152.0Y-92.61
X152.0Y-95.15
X154.54Y-92.61
X154.54Y-95.15
X157.08Y-92.61
X157.08Y-95.15
X157.38Y-72.88
X157.38Y-75.42
X159.62Y-92.61
X159.62Y-95.15
X159.92Y-72.88
X159.92Y-75.42
X162.16Y-92.61
X162.16Y-95.15
X162.46Y-72.88
X162.46Y-75.42
X164.7Y-92.61
X164.7Y-95.15
X165.0Y-72.88
X165.0Y-75.42
X167.54Y-72.88
X167.54Y-75.42
X170.08Y-72.88
X170.08Y-75.42
X172.62Y-72.88
X172.62Y-75.42
X175.16Y-72.88
X175.16Y-75.42
X177.7Y-72.88
X177.7Y-75.42
X180.24Y-72.88
X180.24Y-75.42
X182.78Y-72.88
X182.78Y-75.42
X185.32Y-72.88
X185.32Y-75.42
X187.86Y-72.88
X187.86Y-75.42
X190.37Y-88.12
X190.37Y-90.66
X190.37Y-93.2
X190.37Y-95.74
X190.37Y-98.28
X190.37Y-100.82
X190.37Y-103.36
X190.37Y-105.9
X190.37Y-108.44
X190.37Y-110.98
X190.37Y-113.52
X190.37Y-116.06
X190.37Y-118.6
X190.37Y-121.14
X190.37Y-123.68
X190.4Y-72.88
X190.4Y-75.42
X192.91Y-88.12
X192.91Y-90.66
X192.91Y-93.2
X192.91Y-95.74
X192.91Y-98.28
X192.91Y-100.82
X192.91Y-103.36
X192.91Y-105.9
X192.91Y-108.44
X192.91Y-110.98
X192.91Y-113.52
X192.91Y-116.06
X192.91Y-118.6
X192.91Y-121.14
X192.91Y-123.68
X192.94Y-72.88
X192.94Y-75.42
T4
X169.41Y-141.17
X171.95Y-141.17
X180.13Y-141.17
X182.67Y-141.17
T5
X168.295Y-134.04
X183.785Y-134.04
T6
X137.98Y-94.13
X173.64Y-94.13
T0
M30
