%TF.GenerationSoftware,KiCad,Pcbnew,7.0.1*%
%TF.CreationDate,2023-05-11T10:15:00-05:00*%
%TF.ProjectId,i5ether,69356574-6865-4722-9e6b-696361645f70,rev?*%
%TF.SameCoordinates,Original*%
%TF.FileFunction,Legend,Top*%
%TF.FilePolarity,Positive*%
%FSLAX46Y46*%
G04 Gerber Fmt 4.6, Leading zero omitted, Abs format (unit mm)*
G04 Created by KiCad (PCBNEW 7.0.1) date 2023-05-11 10:15:00*
%MOMM*%
%LPD*%
G01*
G04 APERTURE LIST*
%ADD10C,0.150000*%
%ADD11C,0.254000*%
%ADD12C,0.120000*%
%ADD13C,0.100000*%
%ADD14C,0.200000*%
G04 APERTURE END LIST*
D10*
%TO.C,J1*%
X127912619Y-94213333D02*
X128626904Y-94213333D01*
X128626904Y-94213333D02*
X128769761Y-94260952D01*
X128769761Y-94260952D02*
X128865000Y-94356190D01*
X128865000Y-94356190D02*
X128912619Y-94499047D01*
X128912619Y-94499047D02*
X128912619Y-94594285D01*
X128912619Y-93213333D02*
X128912619Y-93784761D01*
X128912619Y-93499047D02*
X127912619Y-93499047D01*
X127912619Y-93499047D02*
X128055476Y-93594285D01*
X128055476Y-93594285D02*
X128150714Y-93689523D01*
X128150714Y-93689523D02*
X128198333Y-93784761D01*
%TO.C,J4*%
X110796666Y-128522619D02*
X110796666Y-129236904D01*
X110796666Y-129236904D02*
X110749047Y-129379761D01*
X110749047Y-129379761D02*
X110653809Y-129475000D01*
X110653809Y-129475000D02*
X110510952Y-129522619D01*
X110510952Y-129522619D02*
X110415714Y-129522619D01*
X111701428Y-128855952D02*
X111701428Y-129522619D01*
X111463333Y-128475000D02*
X111225238Y-129189285D01*
X111225238Y-129189285D02*
X111844285Y-129189285D01*
%TO.C,R2*%
X172032619Y-110344166D02*
X171556428Y-110677499D01*
X172032619Y-110915594D02*
X171032619Y-110915594D01*
X171032619Y-110915594D02*
X171032619Y-110534642D01*
X171032619Y-110534642D02*
X171080238Y-110439404D01*
X171080238Y-110439404D02*
X171127857Y-110391785D01*
X171127857Y-110391785D02*
X171223095Y-110344166D01*
X171223095Y-110344166D02*
X171365952Y-110344166D01*
X171365952Y-110344166D02*
X171461190Y-110391785D01*
X171461190Y-110391785D02*
X171508809Y-110439404D01*
X171508809Y-110439404D02*
X171556428Y-110534642D01*
X171556428Y-110534642D02*
X171556428Y-110915594D01*
X171127857Y-109963213D02*
X171080238Y-109915594D01*
X171080238Y-109915594D02*
X171032619Y-109820356D01*
X171032619Y-109820356D02*
X171032619Y-109582261D01*
X171032619Y-109582261D02*
X171080238Y-109487023D01*
X171080238Y-109487023D02*
X171127857Y-109439404D01*
X171127857Y-109439404D02*
X171223095Y-109391785D01*
X171223095Y-109391785D02*
X171318333Y-109391785D01*
X171318333Y-109391785D02*
X171461190Y-109439404D01*
X171461190Y-109439404D02*
X172032619Y-110010832D01*
X172032619Y-110010832D02*
X172032619Y-109391785D01*
%TO.C,R3*%
X169042619Y-110344166D02*
X168566428Y-110677499D01*
X169042619Y-110915594D02*
X168042619Y-110915594D01*
X168042619Y-110915594D02*
X168042619Y-110534642D01*
X168042619Y-110534642D02*
X168090238Y-110439404D01*
X168090238Y-110439404D02*
X168137857Y-110391785D01*
X168137857Y-110391785D02*
X168233095Y-110344166D01*
X168233095Y-110344166D02*
X168375952Y-110344166D01*
X168375952Y-110344166D02*
X168471190Y-110391785D01*
X168471190Y-110391785D02*
X168518809Y-110439404D01*
X168518809Y-110439404D02*
X168566428Y-110534642D01*
X168566428Y-110534642D02*
X168566428Y-110915594D01*
X168042619Y-110010832D02*
X168042619Y-109391785D01*
X168042619Y-109391785D02*
X168423571Y-109725118D01*
X168423571Y-109725118D02*
X168423571Y-109582261D01*
X168423571Y-109582261D02*
X168471190Y-109487023D01*
X168471190Y-109487023D02*
X168518809Y-109439404D01*
X168518809Y-109439404D02*
X168614047Y-109391785D01*
X168614047Y-109391785D02*
X168852142Y-109391785D01*
X168852142Y-109391785D02*
X168947380Y-109439404D01*
X168947380Y-109439404D02*
X168995000Y-109487023D01*
X168995000Y-109487023D02*
X169042619Y-109582261D01*
X169042619Y-109582261D02*
X169042619Y-109867975D01*
X169042619Y-109867975D02*
X168995000Y-109963213D01*
X168995000Y-109963213D02*
X168947380Y-110010832D01*
%TO.C,J3*%
X117286666Y-89142619D02*
X117286666Y-89856904D01*
X117286666Y-89856904D02*
X117239047Y-89999761D01*
X117239047Y-89999761D02*
X117143809Y-90095000D01*
X117143809Y-90095000D02*
X117000952Y-90142619D01*
X117000952Y-90142619D02*
X116905714Y-90142619D01*
X117667619Y-89142619D02*
X118286666Y-89142619D01*
X118286666Y-89142619D02*
X117953333Y-89523571D01*
X117953333Y-89523571D02*
X118096190Y-89523571D01*
X118096190Y-89523571D02*
X118191428Y-89571190D01*
X118191428Y-89571190D02*
X118239047Y-89618809D01*
X118239047Y-89618809D02*
X118286666Y-89714047D01*
X118286666Y-89714047D02*
X118286666Y-89952142D01*
X118286666Y-89952142D02*
X118239047Y-90047380D01*
X118239047Y-90047380D02*
X118191428Y-90095000D01*
X118191428Y-90095000D02*
X118096190Y-90142619D01*
X118096190Y-90142619D02*
X117810476Y-90142619D01*
X117810476Y-90142619D02*
X117715238Y-90095000D01*
X117715238Y-90095000D02*
X117667619Y-90047380D01*
%TO.C,R5*%
X148043333Y-140882619D02*
X147710000Y-140406428D01*
X147471905Y-140882619D02*
X147471905Y-139882619D01*
X147471905Y-139882619D02*
X147852857Y-139882619D01*
X147852857Y-139882619D02*
X147948095Y-139930238D01*
X147948095Y-139930238D02*
X147995714Y-139977857D01*
X147995714Y-139977857D02*
X148043333Y-140073095D01*
X148043333Y-140073095D02*
X148043333Y-140215952D01*
X148043333Y-140215952D02*
X147995714Y-140311190D01*
X147995714Y-140311190D02*
X147948095Y-140358809D01*
X147948095Y-140358809D02*
X147852857Y-140406428D01*
X147852857Y-140406428D02*
X147471905Y-140406428D01*
X148948095Y-139882619D02*
X148471905Y-139882619D01*
X148471905Y-139882619D02*
X148424286Y-140358809D01*
X148424286Y-140358809D02*
X148471905Y-140311190D01*
X148471905Y-140311190D02*
X148567143Y-140263571D01*
X148567143Y-140263571D02*
X148805238Y-140263571D01*
X148805238Y-140263571D02*
X148900476Y-140311190D01*
X148900476Y-140311190D02*
X148948095Y-140358809D01*
X148948095Y-140358809D02*
X148995714Y-140454047D01*
X148995714Y-140454047D02*
X148995714Y-140692142D01*
X148995714Y-140692142D02*
X148948095Y-140787380D01*
X148948095Y-140787380D02*
X148900476Y-140835000D01*
X148900476Y-140835000D02*
X148805238Y-140882619D01*
X148805238Y-140882619D02*
X148567143Y-140882619D01*
X148567143Y-140882619D02*
X148471905Y-140835000D01*
X148471905Y-140835000D02*
X148424286Y-140787380D01*
%TO.C,R1*%
X175022619Y-110304166D02*
X174546428Y-110637499D01*
X175022619Y-110875594D02*
X174022619Y-110875594D01*
X174022619Y-110875594D02*
X174022619Y-110494642D01*
X174022619Y-110494642D02*
X174070238Y-110399404D01*
X174070238Y-110399404D02*
X174117857Y-110351785D01*
X174117857Y-110351785D02*
X174213095Y-110304166D01*
X174213095Y-110304166D02*
X174355952Y-110304166D01*
X174355952Y-110304166D02*
X174451190Y-110351785D01*
X174451190Y-110351785D02*
X174498809Y-110399404D01*
X174498809Y-110399404D02*
X174546428Y-110494642D01*
X174546428Y-110494642D02*
X174546428Y-110875594D01*
X175022619Y-109351785D02*
X175022619Y-109923213D01*
X175022619Y-109637499D02*
X174022619Y-109637499D01*
X174022619Y-109637499D02*
X174165476Y-109732737D01*
X174165476Y-109732737D02*
X174260714Y-109827975D01*
X174260714Y-109827975D02*
X174308333Y-109923213D01*
%TO.C,R4*%
X166032619Y-110304166D02*
X165556428Y-110637499D01*
X166032619Y-110875594D02*
X165032619Y-110875594D01*
X165032619Y-110875594D02*
X165032619Y-110494642D01*
X165032619Y-110494642D02*
X165080238Y-110399404D01*
X165080238Y-110399404D02*
X165127857Y-110351785D01*
X165127857Y-110351785D02*
X165223095Y-110304166D01*
X165223095Y-110304166D02*
X165365952Y-110304166D01*
X165365952Y-110304166D02*
X165461190Y-110351785D01*
X165461190Y-110351785D02*
X165508809Y-110399404D01*
X165508809Y-110399404D02*
X165556428Y-110494642D01*
X165556428Y-110494642D02*
X165556428Y-110875594D01*
X165365952Y-109447023D02*
X166032619Y-109447023D01*
X164985000Y-109685118D02*
X165699285Y-109923213D01*
X165699285Y-109923213D02*
X165699285Y-109304166D01*
%TO.C,R6*%
X148043333Y-138342619D02*
X147710000Y-137866428D01*
X147471905Y-138342619D02*
X147471905Y-137342619D01*
X147471905Y-137342619D02*
X147852857Y-137342619D01*
X147852857Y-137342619D02*
X147948095Y-137390238D01*
X147948095Y-137390238D02*
X147995714Y-137437857D01*
X147995714Y-137437857D02*
X148043333Y-137533095D01*
X148043333Y-137533095D02*
X148043333Y-137675952D01*
X148043333Y-137675952D02*
X147995714Y-137771190D01*
X147995714Y-137771190D02*
X147948095Y-137818809D01*
X147948095Y-137818809D02*
X147852857Y-137866428D01*
X147852857Y-137866428D02*
X147471905Y-137866428D01*
X148900476Y-137342619D02*
X148710000Y-137342619D01*
X148710000Y-137342619D02*
X148614762Y-137390238D01*
X148614762Y-137390238D02*
X148567143Y-137437857D01*
X148567143Y-137437857D02*
X148471905Y-137580714D01*
X148471905Y-137580714D02*
X148424286Y-137771190D01*
X148424286Y-137771190D02*
X148424286Y-138152142D01*
X148424286Y-138152142D02*
X148471905Y-138247380D01*
X148471905Y-138247380D02*
X148519524Y-138295000D01*
X148519524Y-138295000D02*
X148614762Y-138342619D01*
X148614762Y-138342619D02*
X148805238Y-138342619D01*
X148805238Y-138342619D02*
X148900476Y-138295000D01*
X148900476Y-138295000D02*
X148948095Y-138247380D01*
X148948095Y-138247380D02*
X148995714Y-138152142D01*
X148995714Y-138152142D02*
X148995714Y-137914047D01*
X148995714Y-137914047D02*
X148948095Y-137818809D01*
X148948095Y-137818809D02*
X148900476Y-137771190D01*
X148900476Y-137771190D02*
X148805238Y-137723571D01*
X148805238Y-137723571D02*
X148614762Y-137723571D01*
X148614762Y-137723571D02*
X148519524Y-137771190D01*
X148519524Y-137771190D02*
X148471905Y-137818809D01*
X148471905Y-137818809D02*
X148424286Y-137914047D01*
D11*
%TO.C,J2*%
X175616667Y-136377526D02*
X175616667Y-137284669D01*
X175616667Y-137284669D02*
X175556190Y-137466097D01*
X175556190Y-137466097D02*
X175435238Y-137587050D01*
X175435238Y-137587050D02*
X175253809Y-137647526D01*
X175253809Y-137647526D02*
X175132857Y-137647526D01*
X176160952Y-136498478D02*
X176221428Y-136438002D01*
X176221428Y-136438002D02*
X176342381Y-136377526D01*
X176342381Y-136377526D02*
X176644762Y-136377526D01*
X176644762Y-136377526D02*
X176765714Y-136438002D01*
X176765714Y-136438002D02*
X176826190Y-136498478D01*
X176826190Y-136498478D02*
X176886667Y-136619430D01*
X176886667Y-136619430D02*
X176886667Y-136740383D01*
X176886667Y-136740383D02*
X176826190Y-136921811D01*
X176826190Y-136921811D02*
X176100476Y-137647526D01*
X176100476Y-137647526D02*
X176886667Y-137647526D01*
D12*
%TO.C,J1*%
X146420000Y-99780000D02*
X147420000Y-99780000D01*
X147420000Y-99780000D02*
X146920000Y-98780000D01*
X146920000Y-98780000D02*
X146420000Y-99780000D01*
X135840000Y-98390000D02*
X175780000Y-98390000D01*
X153760000Y-98390000D02*
X153760000Y-97080000D01*
X175780000Y-98390000D02*
X175780000Y-98020000D01*
X135840000Y-98020000D02*
X135840000Y-98390000D01*
X143000000Y-97080000D02*
X143000000Y-90680000D01*
X153760000Y-97080000D02*
X143000000Y-97080000D01*
X157860000Y-97080000D02*
X157860000Y-98390000D01*
X157860000Y-97080000D02*
X157860000Y-97080000D01*
X168620000Y-97080000D02*
X157860000Y-97080000D01*
X129340000Y-96190000D02*
X129340000Y-91570000D01*
X134090000Y-96190000D02*
X129340000Y-96190000D01*
X177530000Y-96190000D02*
X182280000Y-96190000D01*
X182280000Y-96190000D02*
X182280000Y-91570000D01*
X129340000Y-91570000D02*
X134090000Y-91570000D01*
X182280000Y-91570000D02*
X177530000Y-91570000D01*
X143000000Y-90680000D02*
X168620000Y-90680000D01*
X168620000Y-90680000D02*
X168620000Y-97080000D01*
X135840000Y-90240000D02*
X135840000Y-89370000D01*
X135840000Y-89370000D02*
X175780000Y-89370000D01*
X175780000Y-89370000D02*
X175780000Y-90240000D01*
%TO.C,J4*%
X116840000Y-127620000D02*
X116840000Y-117340000D01*
X116840000Y-127620000D02*
X108210000Y-127620000D01*
X116840000Y-127500000D02*
X108210000Y-127500000D01*
X116840000Y-127381905D02*
X108210000Y-127381905D01*
X116840000Y-127263810D02*
X108210000Y-127263810D01*
X116840000Y-127145715D02*
X108210000Y-127145715D01*
X116840000Y-127027620D02*
X108210000Y-127027620D01*
X116840000Y-126909525D02*
X108210000Y-126909525D01*
X116840000Y-126791430D02*
X108210000Y-126791430D01*
X116840000Y-126673335D02*
X108210000Y-126673335D01*
X116840000Y-126555240D02*
X108210000Y-126555240D01*
X116840000Y-126437145D02*
X108210000Y-126437145D01*
X116840000Y-126319050D02*
X108210000Y-126319050D01*
X116840000Y-126200955D02*
X108210000Y-126200955D01*
X116840000Y-126082860D02*
X108210000Y-126082860D01*
X116840000Y-125964765D02*
X108210000Y-125964765D01*
X116840000Y-125846670D02*
X108210000Y-125846670D01*
X116840000Y-125728575D02*
X108210000Y-125728575D01*
X116840000Y-125610480D02*
X108210000Y-125610480D01*
X116840000Y-125492385D02*
X108210000Y-125492385D01*
X116840000Y-125374290D02*
X108210000Y-125374290D01*
X116840000Y-125256195D02*
X108210000Y-125256195D01*
X116840000Y-125138100D02*
X108210000Y-125138100D01*
X116840000Y-125020000D02*
X108210000Y-125020000D01*
X116840000Y-122480000D02*
X108210000Y-122480000D01*
X116840000Y-119940000D02*
X108210000Y-119940000D01*
X116840000Y-117340000D02*
X108210000Y-117340000D01*
X108210000Y-127620000D02*
X108210000Y-117340000D01*
X108210000Y-126650000D02*
X107860000Y-126650000D01*
X108210000Y-125930000D02*
X107860000Y-125930000D01*
X108210000Y-124110000D02*
X107800000Y-124110000D01*
X108210000Y-123390000D02*
X107800000Y-123390000D01*
X108210000Y-121570000D02*
X107800000Y-121570000D01*
X108210000Y-120850000D02*
X107800000Y-120850000D01*
X108210000Y-119030000D02*
X107800000Y-119030000D01*
X108210000Y-118310000D02*
X107800000Y-118310000D01*
X106750000Y-127620000D02*
X105640000Y-127620000D01*
X105640000Y-127620000D02*
X105640000Y-126290000D01*
%TO.C,R2*%
X170662500Y-109922776D02*
X170662500Y-110432224D01*
X169617500Y-109922776D02*
X169617500Y-110432224D01*
%TO.C,R3*%
X167672500Y-109922776D02*
X167672500Y-110432224D01*
X166627500Y-109922776D02*
X166627500Y-110432224D01*
%TO.C,J3*%
X111670000Y-95280000D02*
X111670000Y-96280000D01*
X111670000Y-96280000D02*
X112670000Y-95780000D01*
X112670000Y-95780000D02*
X111670000Y-95280000D01*
X113060000Y-90570000D02*
X122180000Y-90570000D01*
X113060000Y-97540000D02*
X114370000Y-97540000D01*
X113060000Y-108610000D02*
X113060000Y-90570000D01*
X114370000Y-91870000D02*
X120870000Y-91870000D01*
X114370000Y-97540000D02*
X114370000Y-91870000D01*
X114370000Y-101640000D02*
X113060000Y-101640000D01*
X114370000Y-101640000D02*
X114370000Y-101640000D01*
X114370000Y-107310000D02*
X114370000Y-101640000D01*
X120870000Y-91870000D02*
X120870000Y-107310000D01*
X120870000Y-107310000D02*
X114370000Y-107310000D01*
X122180000Y-90570000D02*
X122180000Y-108610000D01*
X122180000Y-108610000D02*
X113060000Y-108610000D01*
%TO.C,R5*%
X148464724Y-139512500D02*
X147955276Y-139512500D01*
X148464724Y-138467500D02*
X147955276Y-138467500D01*
%TO.C,R1*%
X173652500Y-109882776D02*
X173652500Y-110392224D01*
X172607500Y-109882776D02*
X172607500Y-110392224D01*
%TO.C,G\u002A\u002A\u002A*%
G36*
X152173173Y-123047981D02*
G01*
X152224329Y-123120439D01*
X152247692Y-123285642D01*
X152253672Y-123579950D01*
X152253716Y-123625393D01*
X152247157Y-123944867D01*
X152221645Y-124131316D01*
X152168427Y-124221310D01*
X152104797Y-124247558D01*
X151956228Y-124214193D01*
X151909071Y-124154260D01*
X151887786Y-124006780D01*
X151881602Y-123753001D01*
X151888090Y-123532095D01*
X151909967Y-123249476D01*
X151948407Y-123098031D01*
X152018562Y-123039037D01*
X152083816Y-123031908D01*
X152173173Y-123047981D01*
G37*
G36*
X155696335Y-105066735D02*
G01*
X156015052Y-105074127D01*
X156214795Y-105090561D01*
X156321018Y-105119401D01*
X156359176Y-105164013D01*
X156357733Y-105213681D01*
X156327633Y-105276372D01*
X156247134Y-105320214D01*
X156088618Y-105349557D01*
X155824463Y-105368750D01*
X155427051Y-105382145D01*
X155263728Y-105385995D01*
X154854049Y-105390528D01*
X154507544Y-105385772D01*
X154258709Y-105372813D01*
X154142041Y-105352736D01*
X154139185Y-105350599D01*
X154083482Y-105219125D01*
X154080137Y-105178285D01*
X154116010Y-105130897D01*
X154238220Y-105098037D01*
X154468651Y-105077555D01*
X154829190Y-105067302D01*
X155233189Y-105065018D01*
X155696335Y-105066735D01*
G37*
G36*
X156293992Y-107558321D02*
G01*
X156306280Y-107654454D01*
X156209533Y-107827252D01*
X155997514Y-108087005D01*
X155663986Y-108444003D01*
X155558450Y-108552134D01*
X154727934Y-109397460D01*
X155503370Y-109397460D01*
X155902159Y-109407761D01*
X156185225Y-109436811D01*
X156327978Y-109481833D01*
X156337007Y-109491631D01*
X156298660Y-109577502D01*
X156160202Y-109755721D01*
X155945175Y-110002118D01*
X155677117Y-110292524D01*
X155379568Y-110602768D01*
X155076069Y-110908680D01*
X154790159Y-111186090D01*
X154545378Y-111410828D01*
X154365266Y-111558724D01*
X154277616Y-111606156D01*
X154140702Y-111543160D01*
X154120034Y-111517034D01*
X154156387Y-111427656D01*
X154294051Y-111243562D01*
X154512966Y-110988928D01*
X154793071Y-110687926D01*
X154895470Y-110582585D01*
X155725987Y-109737259D01*
X154954626Y-109737259D01*
X154554724Y-109729599D01*
X154300542Y-109704400D01*
X154168497Y-109658340D01*
X154139155Y-109622310D01*
X154182364Y-109529855D01*
X154325505Y-109345811D01*
X154544577Y-109094812D01*
X154815583Y-108801492D01*
X155114524Y-108490485D01*
X155417401Y-108186425D01*
X155700217Y-107913944D01*
X155938972Y-107697676D01*
X156109669Y-107562256D01*
X156178908Y-107528564D01*
X156293992Y-107558321D01*
G37*
G36*
X146280696Y-115790397D02*
G01*
X146373824Y-115790397D01*
X146409325Y-115884953D01*
X146514175Y-115915763D01*
X146713702Y-115933329D01*
X146947276Y-115937264D01*
X147154269Y-115927181D01*
X147274050Y-115902694D01*
X147284151Y-115890537D01*
X147208515Y-115683375D01*
X147011669Y-115547345D01*
X146816927Y-115513848D01*
X146606203Y-115557060D01*
X146444790Y-115661728D01*
X146373824Y-115790397D01*
X146280696Y-115790397D01*
X146357596Y-115624460D01*
X146477127Y-115493911D01*
X146617916Y-115448763D01*
X146816927Y-115431500D01*
X147028513Y-115450962D01*
X147158688Y-115493911D01*
X147332051Y-115699750D01*
X147447702Y-115985670D01*
X147471784Y-116235921D01*
X147446454Y-116490771D01*
X146179803Y-116490771D01*
X146179803Y-116213531D01*
X146186230Y-116173137D01*
X146301597Y-116173137D01*
X146385098Y-116186740D01*
X146481058Y-116173137D01*
X147151096Y-116173137D01*
X147234597Y-116186740D01*
X147344778Y-116171121D01*
X147346093Y-116142123D01*
X147232397Y-116121844D01*
X147183273Y-116135416D01*
X147151096Y-116173137D01*
X146481058Y-116173137D01*
X146495280Y-116171121D01*
X146496595Y-116142123D01*
X146382899Y-116121844D01*
X146333775Y-116135416D01*
X146301597Y-116173137D01*
X146186230Y-116173137D01*
X146229575Y-115900707D01*
X146280696Y-115790397D01*
G37*
G36*
X146700421Y-125205356D02*
G01*
X147296823Y-125205356D01*
X147332659Y-125269654D01*
X147401249Y-125283079D01*
X147479396Y-125211658D01*
X147550672Y-124990440D01*
X147613624Y-124642485D01*
X147670320Y-124239996D01*
X147694721Y-124001437D01*
X147684936Y-123923583D01*
X147639076Y-124003208D01*
X147555250Y-124237084D01*
X147491228Y-124433580D01*
X147373222Y-124814557D01*
X147309382Y-125062736D01*
X147296823Y-125205356D01*
X146700421Y-125205356D01*
X146851660Y-124752142D01*
X147340662Y-123286758D01*
X147822106Y-123261281D01*
X148010485Y-123249755D01*
X148147474Y-123252630D01*
X148237486Y-123291862D01*
X148284932Y-123389409D01*
X148294226Y-123567229D01*
X148269778Y-123847278D01*
X148216002Y-124251516D01*
X148137309Y-124801898D01*
X148134978Y-124818303D01*
X148073969Y-125254424D01*
X148022603Y-125634133D01*
X147985299Y-125923794D01*
X147966477Y-126089768D01*
X147965078Y-126111339D01*
X147887513Y-126187674D01*
X147685960Y-126217515D01*
X147681138Y-126217527D01*
X147490861Y-126204473D01*
X147424565Y-126133710D01*
X147435930Y-125962677D01*
X147443663Y-125782316D01*
X147373443Y-125714833D01*
X147289374Y-125707828D01*
X147121098Y-125775585D01*
X147016572Y-125962677D01*
X146923837Y-126143017D01*
X146774700Y-126210701D01*
X146645194Y-126217527D01*
X146362657Y-126217527D01*
X146700421Y-125205356D01*
G37*
G36*
X154406372Y-124185679D02*
G01*
X155014586Y-124185679D01*
X155055128Y-124325914D01*
X155151964Y-124324480D01*
X155266446Y-124184316D01*
X155345730Y-123962727D01*
X155328905Y-123805572D01*
X155236049Y-123753982D01*
X155103668Y-123830698D01*
X155026463Y-124035483D01*
X155014586Y-124185679D01*
X154406372Y-124185679D01*
X154622994Y-123244283D01*
X155190662Y-123244283D01*
X155554965Y-123260193D01*
X155777624Y-123311163D01*
X155864759Y-123372520D01*
X155929674Y-123561620D01*
X155923560Y-123838910D01*
X155854612Y-124142282D01*
X155731024Y-124409628D01*
X155727130Y-124415579D01*
X155624490Y-124650796D01*
X155597581Y-124871207D01*
X155591652Y-125105802D01*
X155547353Y-125385408D01*
X155538329Y-125423381D01*
X155469279Y-125705058D01*
X155409136Y-125960213D01*
X155403760Y-125983915D01*
X155338983Y-126147291D01*
X155206176Y-126210190D01*
X155067455Y-126217527D01*
X154783761Y-126217527D01*
X154916275Y-125583346D01*
X154980910Y-125209582D01*
X154994928Y-124960030D01*
X154958977Y-124847861D01*
X154881563Y-124878086D01*
X154840481Y-124978724D01*
X154775998Y-125200582D01*
X154700944Y-125498887D01*
X154688838Y-125550606D01*
X154612581Y-125867653D01*
X154549591Y-126055386D01*
X154474884Y-126150027D01*
X154363476Y-126187800D01*
X154240510Y-126200625D01*
X153936833Y-126226197D01*
X154279914Y-124735240D01*
X154406372Y-124185679D01*
G37*
G36*
X153839174Y-115828162D02*
G01*
X153995188Y-115828162D01*
X154066452Y-115902045D01*
X154287837Y-115935721D01*
X154419937Y-115938597D01*
X154704102Y-115920068D01*
X154833625Y-115862508D01*
X154844686Y-115828162D01*
X154769210Y-115646707D01*
X154573449Y-115534153D01*
X154419937Y-115513848D01*
X154174727Y-115569700D01*
X154022627Y-115714563D01*
X153995188Y-115828162D01*
X153839174Y-115828162D01*
X153893900Y-115782986D01*
X153933840Y-115687616D01*
X154050193Y-115535959D01*
X154262303Y-115455343D01*
X154511596Y-115445769D01*
X154739495Y-115507236D01*
X154887425Y-115639745D01*
X154906033Y-115687616D01*
X154973399Y-115823254D01*
X155024493Y-115853647D01*
X155101886Y-115896711D01*
X155067440Y-115992179D01*
X154944441Y-116089463D01*
X154908398Y-116105849D01*
X154792768Y-116163158D01*
X154833535Y-116186181D01*
X154865923Y-116188062D01*
X154992283Y-116262286D01*
X155014586Y-116342109D01*
X154991779Y-116420998D01*
X154900006Y-116466223D01*
X154704238Y-116486541D01*
X154419937Y-116490771D01*
X154104378Y-116485069D01*
X153923478Y-116462126D01*
X153842208Y-116413184D01*
X153825288Y-116342109D01*
X153896152Y-116215382D01*
X154016425Y-116184979D01*
X154145624Y-116175437D01*
X154117954Y-116152819D01*
X154001486Y-116118923D01*
X153851777Y-116045493D01*
X153757329Y-115948048D01*
X153750689Y-115871284D01*
X153808301Y-115853647D01*
X153839174Y-115828162D01*
G37*
G36*
X141463589Y-123286113D02*
G01*
X141665297Y-123453615D01*
X141733047Y-123716356D01*
X141721378Y-123836263D01*
X141660348Y-124147149D01*
X141597530Y-124326037D01*
X141507275Y-124409149D01*
X141363937Y-124432703D01*
X141298409Y-124433580D01*
X141113082Y-124424183D01*
X141048748Y-124362475D01*
X141069026Y-124198184D01*
X141082915Y-124135803D01*
X141103179Y-123911343D01*
X141057940Y-123777936D01*
X140963684Y-123767259D01*
X140912365Y-123808106D01*
X140862106Y-123920909D01*
X140790048Y-124155124D01*
X140707209Y-124465463D01*
X140624606Y-124806637D01*
X140553258Y-125133359D01*
X140504183Y-125400340D01*
X140488164Y-125551715D01*
X140519599Y-125682831D01*
X140596480Y-125679911D01*
X140692674Y-125563002D01*
X140782049Y-125352153D01*
X140791844Y-125318745D01*
X140869024Y-125101389D01*
X140975708Y-124999645D01*
X141169480Y-124961562D01*
X141189729Y-124959773D01*
X141494687Y-124933791D01*
X141376728Y-125384522D01*
X141210168Y-125806508D01*
X140967958Y-126078748D01*
X140644945Y-126206081D01*
X140489495Y-126217527D01*
X140230864Y-126182976D01*
X140040787Y-126096492D01*
X140027008Y-126084034D01*
X139942053Y-125957785D01*
X139904251Y-125777220D01*
X139914520Y-125514934D01*
X139973777Y-125143522D01*
X140074237Y-124673609D01*
X140208484Y-124137728D01*
X140340599Y-123748919D01*
X140486691Y-123485333D01*
X140662868Y-123325126D01*
X140885241Y-123246450D01*
X141140738Y-123227293D01*
X141463589Y-123286113D01*
G37*
G36*
X143526858Y-124314442D02*
G01*
X144167601Y-124314442D01*
X144254694Y-124337262D01*
X144378867Y-124246691D01*
X144463210Y-124091265D01*
X144475995Y-123913451D01*
X144420779Y-123782018D01*
X144353382Y-123753982D01*
X144239838Y-123811114D01*
X144224797Y-123860169D01*
X144202876Y-124024054D01*
X144172414Y-124157493D01*
X144167601Y-124314442D01*
X143526858Y-124314442D01*
X143768001Y-123286758D01*
X145032980Y-123286758D01*
X145031066Y-123770412D01*
X145012236Y-124093118D01*
X144948076Y-124307824D01*
X144845563Y-124450011D01*
X144719693Y-124646199D01*
X144733860Y-124773799D01*
X144752633Y-124926792D01*
X144723338Y-125203867D01*
X144656647Y-125538347D01*
X144577713Y-125860033D01*
X144512503Y-126051813D01*
X144438336Y-126149736D01*
X144332535Y-126189847D01*
X144239327Y-126201672D01*
X144081139Y-126202995D01*
X143995116Y-126149507D01*
X143976025Y-126013380D01*
X144018634Y-125766788D01*
X144098532Y-125452978D01*
X144178620Y-125146657D01*
X144213899Y-124969065D01*
X144204790Y-124885164D01*
X144151712Y-124859913D01*
X144105655Y-124858329D01*
X144019974Y-124936255D01*
X143928938Y-125173583D01*
X143838517Y-125537928D01*
X143691681Y-126217527D01*
X143406645Y-126217527D01*
X143201061Y-126189035D01*
X143125839Y-126112530D01*
X143125874Y-126111339D01*
X143145946Y-125996222D01*
X143198708Y-125746020D01*
X143277501Y-125390929D01*
X143375666Y-124961145D01*
X143449070Y-124645955D01*
X143526858Y-124314442D01*
G37*
G36*
X140814941Y-115775071D02*
G01*
X140907897Y-115775071D01*
X140960692Y-115880315D01*
X141174030Y-115932314D01*
X141337663Y-115938597D01*
X141593685Y-115929006D01*
X141721269Y-115889915D01*
X141761292Y-115805846D01*
X141762412Y-115777786D01*
X141690156Y-115627727D01*
X141513203Y-115533422D01*
X141291271Y-115507811D01*
X141084080Y-115563837D01*
X141014853Y-115615788D01*
X140907897Y-115775071D01*
X140814941Y-115775071D01*
X140851566Y-115687616D01*
X140967919Y-115535959D01*
X141180029Y-115455343D01*
X141429322Y-115445769D01*
X141657221Y-115507236D01*
X141805151Y-115639745D01*
X141823759Y-115687616D01*
X141891124Y-115823254D01*
X141942219Y-115853647D01*
X141990258Y-115928768D01*
X142015927Y-116115266D01*
X142017261Y-116175697D01*
X142017261Y-116497748D01*
X141380175Y-116494259D01*
X141051283Y-116487337D01*
X140858145Y-116465622D01*
X140766746Y-116420993D01*
X140743071Y-116345327D01*
X140743051Y-116342109D01*
X140813870Y-116215383D01*
X140934151Y-116184979D01*
X141063350Y-116175437D01*
X141060536Y-116173137D01*
X141714306Y-116173137D01*
X141797807Y-116186740D01*
X141907989Y-116171121D01*
X141909304Y-116142123D01*
X141795608Y-116121844D01*
X141746484Y-116135416D01*
X141714306Y-116173137D01*
X141060536Y-116173137D01*
X141035680Y-116152819D01*
X140919211Y-116118923D01*
X140769503Y-116045493D01*
X140675054Y-115948048D01*
X140668415Y-115871284D01*
X140726027Y-115853647D01*
X140811626Y-115782986D01*
X140814941Y-115775071D01*
G37*
G36*
X141659685Y-125185507D02*
G01*
X142205216Y-125185507D01*
X142224408Y-125269864D01*
X142321992Y-125269570D01*
X142406059Y-125224998D01*
X142470114Y-125107613D01*
X142525327Y-124885406D01*
X142582873Y-124526371D01*
X142583871Y-124519358D01*
X142627441Y-124191569D01*
X142655732Y-123935851D01*
X142664534Y-123792382D01*
X142661803Y-123775558D01*
X142628546Y-123839051D01*
X142561407Y-124029330D01*
X142473010Y-124309770D01*
X142442769Y-124410968D01*
X142346121Y-124734852D01*
X142264244Y-125002751D01*
X142211801Y-125166858D01*
X142205216Y-125185507D01*
X141659685Y-125185507D01*
X141726127Y-124977838D01*
X141838608Y-124624717D01*
X142277513Y-123244283D01*
X142784511Y-123244283D01*
X143051743Y-123253963D01*
X143233937Y-123279118D01*
X143287572Y-123307995D01*
X143275374Y-123409567D01*
X143244121Y-123650169D01*
X143197689Y-124000490D01*
X143139956Y-124431214D01*
X143093742Y-124773380D01*
X142903850Y-126175052D01*
X142630455Y-126201672D01*
X142442583Y-126205055D01*
X142369119Y-126133884D01*
X142357061Y-125968060D01*
X142331846Y-125779473D01*
X142236618Y-125711413D01*
X142185037Y-125707828D01*
X142041070Y-125766781D01*
X141962079Y-125962501D01*
X141962044Y-125962677D01*
X141905122Y-126136528D01*
X141789902Y-126206349D01*
X141615280Y-126217527D01*
X141407695Y-126193912D01*
X141356510Y-126121107D01*
X141359595Y-126111339D01*
X141397615Y-125998356D01*
X141477611Y-125752431D01*
X141590232Y-125402585D01*
X141659685Y-125185507D01*
G37*
G36*
X148282973Y-125602512D02*
G01*
X148898198Y-125602512D01*
X148940290Y-125701487D01*
X149035447Y-125678689D01*
X149136989Y-125549880D01*
X149152326Y-125516691D01*
X149213508Y-125334831D01*
X149288580Y-125059889D01*
X149368092Y-124734316D01*
X149442596Y-124400566D01*
X149502641Y-124101090D01*
X149538777Y-123878341D01*
X149541555Y-123774771D01*
X149540415Y-123773234D01*
X149433166Y-123750249D01*
X149321563Y-123892860D01*
X149204882Y-124202480D01*
X149087460Y-124657967D01*
X149007491Y-125022491D01*
X148944239Y-125329695D01*
X148905892Y-125538725D01*
X148898198Y-125602512D01*
X148282973Y-125602512D01*
X148342761Y-125350475D01*
X148435730Y-124953570D01*
X148532982Y-124534438D01*
X148626670Y-124126977D01*
X148708947Y-123765084D01*
X148771967Y-123482656D01*
X148807884Y-123313589D01*
X148813248Y-123281480D01*
X148890713Y-123262442D01*
X149093210Y-123249030D01*
X149359354Y-123244283D01*
X149672601Y-123250667D01*
X149899926Y-123283807D01*
X150048119Y-123364685D01*
X150123972Y-123514281D01*
X150134273Y-123753578D01*
X150085814Y-124103557D01*
X149985384Y-124585199D01*
X149905966Y-124933287D01*
X149775866Y-125431782D01*
X149637881Y-125784748D01*
X149469471Y-126015925D01*
X149248097Y-126149050D01*
X148951221Y-126207863D01*
X148686633Y-126217527D01*
X148385840Y-126212567D01*
X148221624Y-126191345D01*
X148160796Y-126144348D01*
X148168016Y-126068865D01*
X148201057Y-125942020D01*
X148261921Y-125691257D01*
X148282973Y-125602512D01*
G37*
G36*
X142267067Y-121389461D02*
G01*
X142374181Y-121389461D01*
X142420376Y-121527424D01*
X142500873Y-121573728D01*
X142671060Y-121590398D01*
X142894996Y-121579926D01*
X143093350Y-121549269D01*
X143181127Y-121514085D01*
X143180115Y-121421602D01*
X143155322Y-121340711D01*
X143041190Y-121246540D01*
X142839221Y-121211409D01*
X142616071Y-121231157D01*
X142438392Y-121301625D01*
X142374181Y-121389461D01*
X142267067Y-121389461D01*
X142276924Y-121368704D01*
X142281062Y-121362816D01*
X142424913Y-121198079D01*
X142585779Y-121135356D01*
X142803347Y-121137327D01*
X143087939Y-121198164D01*
X143240382Y-121332911D01*
X143346218Y-121491846D01*
X143408579Y-121557026D01*
X143440407Y-121651195D01*
X143390872Y-121749421D01*
X143303965Y-121765345D01*
X143302820Y-121764652D01*
X143187203Y-121770712D01*
X143117553Y-121804440D01*
X143057381Y-121863322D01*
X143150062Y-121883151D01*
X143185321Y-121883784D01*
X143344243Y-121938201D01*
X143376421Y-122033748D01*
X143354452Y-122110613D01*
X143265917Y-122156165D01*
X143076801Y-122178526D01*
X142753088Y-122185818D01*
X142739297Y-122185898D01*
X142102211Y-122189387D01*
X142102211Y-121901687D01*
X142121259Y-121800135D01*
X142187161Y-121800135D01*
X142256307Y-121874689D01*
X142319599Y-121885085D01*
X142407527Y-121843902D01*
X142399535Y-121800135D01*
X142290931Y-121718426D01*
X142267097Y-121715186D01*
X142189449Y-121779980D01*
X142187161Y-121800135D01*
X142121259Y-121800135D01*
X142153389Y-121628839D01*
X142267067Y-121389461D01*
G37*
G36*
X151533779Y-123585402D02*
G01*
X151576262Y-123651440D01*
X151523529Y-123761772D01*
X151360037Y-123942154D01*
X151258870Y-124040914D01*
X150956183Y-124394400D01*
X150799812Y-124757392D01*
X150771491Y-125181559D01*
X150790131Y-125366770D01*
X150919805Y-125779802D01*
X151192810Y-126112840D01*
X151458259Y-126296727D01*
X151869910Y-126443533D01*
X152290323Y-126444518D01*
X152685671Y-126316071D01*
X153022127Y-126074583D01*
X153265865Y-125736445D01*
X153377502Y-125366770D01*
X153391138Y-124898616D01*
X153279765Y-124512389D01*
X153026419Y-124158900D01*
X152925968Y-124057400D01*
X152717982Y-123844584D01*
X152627145Y-123708853D01*
X152637024Y-123622301D01*
X152657490Y-123601490D01*
X152810982Y-123574631D01*
X153019649Y-123667773D01*
X153249198Y-123856485D01*
X153465334Y-124116334D01*
X153536111Y-124227445D01*
X153714282Y-124684271D01*
X153755690Y-125176485D01*
X153669010Y-125663626D01*
X153462919Y-126105234D01*
X153146094Y-126460851D01*
X153040545Y-126538298D01*
X152614175Y-126729310D01*
X152125903Y-126804431D01*
X151639125Y-126759864D01*
X151306250Y-126642127D01*
X151035470Y-126455589D01*
X150780618Y-126203562D01*
X150711601Y-126113792D01*
X150584550Y-125910473D01*
X150511511Y-125719260D01*
X150478062Y-125480544D01*
X150469782Y-125134719D01*
X150469770Y-125114238D01*
X150478144Y-124755357D01*
X150512219Y-124506648D01*
X150585420Y-124308829D01*
X150692675Y-124130052D01*
X150917023Y-123856175D01*
X151158394Y-123660119D01*
X151380648Y-123565287D01*
X151533779Y-123585402D01*
G37*
G36*
X153898103Y-114600637D02*
G01*
X154011360Y-114600637D01*
X154019224Y-114688878D01*
X154111480Y-114733743D01*
X154325027Y-114748658D01*
X154419937Y-114749299D01*
X154677820Y-114740847D01*
X154803158Y-114706540D01*
X154832850Y-114632951D01*
X154828514Y-114600637D01*
X154768022Y-114503602D01*
X154608825Y-114459410D01*
X154419937Y-114451975D01*
X154168786Y-114468332D01*
X154044488Y-114527291D01*
X154011360Y-114600637D01*
X153898103Y-114600637D01*
X153910651Y-114578820D01*
X154075329Y-114400665D01*
X154274610Y-114331530D01*
X154419937Y-114324550D01*
X154669977Y-114353574D01*
X154842087Y-114469768D01*
X154933119Y-114584291D01*
X155044837Y-114756197D01*
X155090032Y-114856891D01*
X155087565Y-114864922D01*
X154995876Y-114911567D01*
X154844686Y-114981706D01*
X154701286Y-115051034D01*
X154708058Y-115076894D01*
X154823449Y-115083349D01*
X154979800Y-115140057D01*
X155014586Y-115258998D01*
X154961469Y-115397364D01*
X154887161Y-115428898D01*
X154774112Y-115383028D01*
X154759736Y-115343948D01*
X154684373Y-115290752D01*
X154496106Y-115261165D01*
X154419937Y-115258998D01*
X154207154Y-115277839D01*
X154088802Y-115324906D01*
X154080137Y-115343948D01*
X154011332Y-115419314D01*
X153952713Y-115428898D01*
X153848939Y-115358076D01*
X153825288Y-115258998D01*
X153881435Y-115120410D01*
X154016425Y-115087798D01*
X154139078Y-115073527D01*
X154106395Y-115023108D01*
X154084193Y-115008453D01*
X153946193Y-114960046D01*
X153898926Y-114968665D01*
X153807251Y-114977743D01*
X153785769Y-114877722D01*
X153833126Y-114713608D01*
X153898103Y-114600637D01*
G37*
G36*
X146444202Y-123266109D02*
G01*
X146612446Y-123398216D01*
X146674958Y-123647103D01*
X146672356Y-123831491D01*
X146648561Y-124070592D01*
X146593960Y-124188929D01*
X146472148Y-124235546D01*
X146362876Y-124248427D01*
X146172733Y-124256696D01*
X146109307Y-124201445D01*
X146130635Y-124039461D01*
X146136014Y-124014815D01*
X146158439Y-123829300D01*
X146104236Y-123759157D01*
X146057025Y-123753982D01*
X145968018Y-123779437D01*
X145890988Y-123871926D01*
X145816542Y-124055632D01*
X145735289Y-124354741D01*
X145637836Y-124793435D01*
X145619736Y-124880012D01*
X145543062Y-125292467D01*
X145518246Y-125555255D01*
X145546650Y-125680929D01*
X145629634Y-125682044D01*
X145701285Y-125632251D01*
X145790303Y-125495701D01*
X145853219Y-125294859D01*
X145875031Y-125101265D01*
X145840734Y-124986458D01*
X145837233Y-124984042D01*
X145806615Y-124883067D01*
X145818825Y-124732932D01*
X145865996Y-124596430D01*
X145972422Y-124534290D01*
X146190407Y-124518616D01*
X146220809Y-124518530D01*
X146581807Y-124518530D01*
X146461211Y-125049467D01*
X146352103Y-125518257D01*
X146268021Y-125844770D01*
X146200404Y-126053275D01*
X146140690Y-126168040D01*
X146080315Y-126213334D01*
X146049104Y-126217527D01*
X145942352Y-126148490D01*
X145924954Y-126076936D01*
X145912812Y-125983653D01*
X145847428Y-126009165D01*
X145769602Y-126076936D01*
X145560024Y-126183444D01*
X145301736Y-126213455D01*
X145075044Y-126162897D01*
X145007495Y-126115587D01*
X144929515Y-125953795D01*
X144913555Y-125676869D01*
X144960346Y-125271245D01*
X145070617Y-124723355D01*
X145086037Y-124656470D01*
X145222325Y-124123888D01*
X145356398Y-123738291D01*
X145504560Y-123477777D01*
X145683114Y-123320444D01*
X145908364Y-123244391D01*
X146149914Y-123227293D01*
X146444202Y-123266109D01*
G37*
G36*
X140816245Y-114641580D02*
G01*
X140925217Y-114641580D01*
X140968429Y-114714539D01*
X141140298Y-114744832D01*
X141343891Y-114749299D01*
X141599510Y-114740603D01*
X141722773Y-114705397D01*
X141750741Y-114630002D01*
X141746697Y-114600637D01*
X141651380Y-114495134D01*
X141457726Y-114430579D01*
X141234104Y-114415142D01*
X141048884Y-114456991D01*
X140986573Y-114509809D01*
X140925217Y-114641580D01*
X140816245Y-114641580D01*
X140879090Y-114536925D01*
X141033848Y-114401142D01*
X141316126Y-114341341D01*
X141557077Y-114342737D01*
X141711578Y-114416168D01*
X141838410Y-114566829D01*
X141963883Y-114811378D01*
X142019481Y-115064137D01*
X142004727Y-115278924D01*
X141919139Y-115409556D01*
X141847362Y-115428898D01*
X141709321Y-115393323D01*
X141677462Y-115343948D01*
X141602099Y-115290752D01*
X141413832Y-115261165D01*
X141337663Y-115258998D01*
X141124879Y-115277839D01*
X141006528Y-115324906D01*
X140997863Y-115343948D01*
X140929751Y-115420858D01*
X140879733Y-115428898D01*
X140786044Y-115349611D01*
X140725869Y-115132436D01*
X140722996Y-115110336D01*
X140716834Y-115006815D01*
X140827964Y-115006815D01*
X140896810Y-115079829D01*
X140955388Y-115089099D01*
X141068729Y-115070924D01*
X141082813Y-115055712D01*
X141020282Y-115004149D01*
X141719937Y-115004149D01*
X141739195Y-115076874D01*
X141799873Y-115089099D01*
X141916103Y-115044746D01*
X141932311Y-115004149D01*
X141871341Y-114921631D01*
X141852375Y-114919199D01*
X141737324Y-114980949D01*
X141719937Y-115004149D01*
X141020282Y-115004149D01*
X141016386Y-115000936D01*
X140955388Y-114973429D01*
X140846002Y-114971663D01*
X140827964Y-115006815D01*
X140716834Y-115006815D01*
X140710106Y-114893768D01*
X140727039Y-114760870D01*
X140734940Y-114749299D01*
X140812602Y-114647647D01*
X140816245Y-114641580D01*
G37*
G36*
X146274536Y-114676061D02*
G01*
X146394993Y-114676061D01*
X146431186Y-114726791D01*
X146576056Y-114746293D01*
X146813938Y-114749299D01*
X147070809Y-114743490D01*
X147241600Y-114728498D01*
X147284151Y-114713772D01*
X147213031Y-114540744D01*
X147036990Y-114431139D01*
X146812003Y-114393812D01*
X146594045Y-114437616D01*
X146439094Y-114571407D01*
X146434653Y-114579400D01*
X146394993Y-114676061D01*
X146274536Y-114676061D01*
X146309409Y-114575181D01*
X146413025Y-114416815D01*
X146547989Y-114343853D01*
X146778731Y-114324729D01*
X146820930Y-114324550D01*
X147070918Y-114339413D01*
X147210859Y-114401318D01*
X147299294Y-114536237D01*
X147299608Y-114536925D01*
X147387254Y-114692450D01*
X147448694Y-114749299D01*
X147474225Y-114824185D01*
X147474631Y-115011401D01*
X147468610Y-115089099D01*
X147412813Y-115321389D01*
X147316158Y-115432385D01*
X147202828Y-115402329D01*
X147156726Y-115343948D01*
X147043559Y-115286090D01*
X146838456Y-115259233D01*
X146816927Y-115258998D01*
X146607108Y-115281887D01*
X146481829Y-115337625D01*
X146477127Y-115343948D01*
X146360579Y-115442126D01*
X146253098Y-115395743D01*
X146187230Y-115228507D01*
X146179803Y-115127355D01*
X146196281Y-115004149D01*
X146264753Y-115004149D01*
X146333899Y-115078702D01*
X146397191Y-115089099D01*
X146485119Y-115047916D01*
X146477127Y-115004149D01*
X147156726Y-115004149D01*
X147175984Y-115076874D01*
X147236662Y-115089099D01*
X147352892Y-115044746D01*
X147369101Y-115004149D01*
X147308130Y-114921631D01*
X147289164Y-114919199D01*
X147174114Y-114980949D01*
X147156726Y-115004149D01*
X146477127Y-115004149D01*
X146368523Y-114922439D01*
X146344689Y-114919199D01*
X146267041Y-114983994D01*
X146264753Y-115004149D01*
X146196281Y-115004149D01*
X146218469Y-114838247D01*
X146274536Y-114676061D01*
G37*
G36*
X148357083Y-114691950D02*
G01*
X148503016Y-114691950D01*
X148588983Y-114732917D01*
X148797497Y-114748120D01*
X148934573Y-114749299D01*
X149203111Y-114745080D01*
X149334479Y-114722887D01*
X149361369Y-114668421D01*
X149322947Y-114579400D01*
X149200693Y-114457471D01*
X148979155Y-114411453D01*
X148895209Y-114409500D01*
X148683420Y-114417454D01*
X148566470Y-114437303D01*
X148558398Y-114445027D01*
X148531972Y-114544884D01*
X148506835Y-114614927D01*
X148503016Y-114691950D01*
X148357083Y-114691950D01*
X148367120Y-114681424D01*
X148432067Y-114558162D01*
X148524838Y-114431857D01*
X148693696Y-114366010D01*
X148911062Y-114341475D01*
X149158078Y-114335461D01*
X149298703Y-114378240D01*
X149395282Y-114498778D01*
X149441998Y-114588139D01*
X149536131Y-114846513D01*
X149575662Y-115103715D01*
X149559825Y-115311592D01*
X149487851Y-115421987D01*
X149455385Y-115428898D01*
X149310754Y-115377125D01*
X149280472Y-115343948D01*
X149169090Y-115289648D01*
X148957815Y-115260550D01*
X148893184Y-115258998D01*
X148682261Y-115278103D01*
X148566186Y-115325747D01*
X148558398Y-115343948D01*
X148490257Y-115420796D01*
X148439896Y-115428898D01*
X148346901Y-115347993D01*
X148291756Y-115115820D01*
X148288989Y-115089099D01*
X148285059Y-115006815D01*
X148388499Y-115006815D01*
X148457345Y-115079829D01*
X148515923Y-115089099D01*
X148629264Y-115070924D01*
X148643348Y-115055712D01*
X148580817Y-115004149D01*
X149280472Y-115004149D01*
X149299730Y-115076874D01*
X149360408Y-115089099D01*
X149476638Y-115044746D01*
X149492847Y-115004149D01*
X149431876Y-114921631D01*
X149412910Y-114919199D01*
X149297860Y-114980949D01*
X149280472Y-115004149D01*
X148580817Y-115004149D01*
X148576921Y-115000936D01*
X148515923Y-114973429D01*
X148406537Y-114971663D01*
X148388499Y-115006815D01*
X148285059Y-115006815D01*
X148278851Y-114876862D01*
X148292796Y-114758293D01*
X148302397Y-114749299D01*
X148357083Y-114691950D01*
G37*
G36*
X144895759Y-121389461D02*
G01*
X145007626Y-121389461D01*
X145053821Y-121527424D01*
X145134318Y-121573728D01*
X145304505Y-121590398D01*
X145528441Y-121579926D01*
X145726795Y-121549269D01*
X145814572Y-121514085D01*
X145813560Y-121421602D01*
X145788767Y-121340711D01*
X145674635Y-121246540D01*
X145472666Y-121211409D01*
X145249516Y-121231157D01*
X145071836Y-121301625D01*
X145007626Y-121389461D01*
X144895759Y-121389461D01*
X144905239Y-121375830D01*
X145053171Y-121202944D01*
X145211851Y-121136188D01*
X145436791Y-121137327D01*
X145721384Y-121198164D01*
X145873827Y-121332911D01*
X145979663Y-121491846D01*
X146042024Y-121557026D01*
X146073851Y-121651195D01*
X146024317Y-121749421D01*
X145937410Y-121765345D01*
X145936265Y-121764652D01*
X145820647Y-121770712D01*
X145750998Y-121804440D01*
X145690825Y-121863322D01*
X145783507Y-121883151D01*
X145818766Y-121883784D01*
X145973593Y-121934064D01*
X146009903Y-122058834D01*
X145988757Y-122171097D01*
X145893483Y-122201799D01*
X145712579Y-122176805D01*
X145408216Y-122153807D01*
X145117930Y-122176805D01*
X144918006Y-122231476D01*
X144836022Y-122332145D01*
X144820606Y-122526058D01*
X144792219Y-122744436D01*
X144702017Y-122819226D01*
X144693181Y-122819533D01*
X144580132Y-122773663D01*
X144565756Y-122734584D01*
X144490467Y-122681063D01*
X144302701Y-122651610D01*
X144230970Y-122649634D01*
X144004772Y-122669381D01*
X143859784Y-122718427D01*
X143843683Y-122734584D01*
X143730527Y-122828817D01*
X143624036Y-122773817D01*
X143548391Y-122589344D01*
X143531799Y-122479734D01*
X143528314Y-122394784D01*
X143631308Y-122394784D01*
X143700454Y-122469337D01*
X143763746Y-122479734D01*
X143851674Y-122438551D01*
X143843683Y-122394784D01*
X144523281Y-122394784D01*
X144542539Y-122467510D01*
X144603218Y-122479734D01*
X144719447Y-122435382D01*
X144735656Y-122394784D01*
X144674685Y-122312266D01*
X144655720Y-122309834D01*
X144540669Y-122371584D01*
X144523281Y-122394784D01*
X143843683Y-122394784D01*
X143735078Y-122313075D01*
X143711244Y-122309834D01*
X143633596Y-122374629D01*
X143631308Y-122394784D01*
X143528314Y-122394784D01*
X143523094Y-122267544D01*
X143540612Y-122148957D01*
X143551715Y-122139935D01*
X143609912Y-122082768D01*
X143745844Y-122082768D01*
X143832131Y-122123726D01*
X144041307Y-122138815D01*
X144174393Y-122139935D01*
X144433152Y-122134196D01*
X144606140Y-122119369D01*
X144650706Y-122104408D01*
X144592847Y-121918554D01*
X144408593Y-121821213D01*
X144174393Y-121800135D01*
X143949487Y-121807360D01*
X143816572Y-121825592D01*
X143801208Y-121835663D01*
X143774781Y-121935519D01*
X143749644Y-122005562D01*
X143745844Y-122082768D01*
X143609912Y-122082768D01*
X143621073Y-122071805D01*
X143700801Y-121927560D01*
X143789307Y-121792182D01*
X143929242Y-121730075D01*
X144178672Y-121715186D01*
X144437140Y-121733169D01*
X144585604Y-121802261D01*
X144661951Y-121906097D01*
X144749694Y-122019225D01*
X144799444Y-121991046D01*
X144902440Y-121903649D01*
X145018822Y-121879336D01*
X145137382Y-121869309D01*
X145111435Y-121834995D01*
X144990505Y-121777692D01*
X144824046Y-121700211D01*
X144747626Y-121660908D01*
X144771765Y-121586319D01*
X144869669Y-121426973D01*
X144895759Y-121389461D01*
G37*
G36*
X140756899Y-119226156D02*
G01*
X140912913Y-119226156D01*
X140984178Y-119300038D01*
X141205562Y-119333715D01*
X141337663Y-119336590D01*
X141621827Y-119318061D01*
X141751351Y-119260502D01*
X141762412Y-119226156D01*
X141686936Y-119044700D01*
X141491175Y-118932146D01*
X141337663Y-118911841D01*
X141092453Y-118967693D01*
X140940353Y-119112557D01*
X140912913Y-119226156D01*
X140756899Y-119226156D01*
X140811626Y-119180980D01*
X140851566Y-119085609D01*
X140960240Y-118941575D01*
X141116323Y-118864025D01*
X141403912Y-118840687D01*
X141651596Y-118904711D01*
X141805311Y-119039164D01*
X141823759Y-119085609D01*
X141891124Y-119221247D01*
X141942219Y-119251640D01*
X142019172Y-119295363D01*
X141984159Y-119393226D01*
X141859489Y-119495271D01*
X141826124Y-119511624D01*
X141634987Y-119596232D01*
X141831849Y-119557817D01*
X141973022Y-119553875D01*
X142013756Y-119650900D01*
X142009554Y-119746558D01*
X142026350Y-119944025D01*
X142088968Y-120167052D01*
X142174288Y-120353220D01*
X142259191Y-120440112D01*
X142266754Y-120440938D01*
X142292285Y-120515824D01*
X142292691Y-120703040D01*
X142286670Y-120780737D01*
X142230873Y-121013027D01*
X142134218Y-121124024D01*
X142020888Y-121093967D01*
X141974786Y-121035587D01*
X141863404Y-120981287D01*
X141652130Y-120952189D01*
X141587499Y-120950637D01*
X141376575Y-120969741D01*
X141260501Y-121017386D01*
X141252713Y-121035587D01*
X141184571Y-121112435D01*
X141134211Y-121120537D01*
X141041215Y-121039632D01*
X140986070Y-120807459D01*
X140983304Y-120780737D01*
X140978481Y-120663178D01*
X141111679Y-120663178D01*
X141125288Y-120695788D01*
X141237822Y-120777566D01*
X141262740Y-120780737D01*
X141308797Y-120728397D01*
X141295188Y-120695788D01*
X141974786Y-120695788D01*
X141994044Y-120768513D01*
X142054723Y-120780737D01*
X142170952Y-120736385D01*
X142187161Y-120695788D01*
X142126190Y-120613269D01*
X142107225Y-120610838D01*
X141992174Y-120672588D01*
X141974786Y-120695788D01*
X141295188Y-120695788D01*
X141182653Y-120614009D01*
X141157736Y-120610838D01*
X141111679Y-120663178D01*
X140978481Y-120663178D01*
X140974599Y-120568548D01*
X140992117Y-120449960D01*
X141003220Y-120440938D01*
X141061418Y-120383771D01*
X141197349Y-120383771D01*
X141283636Y-120424730D01*
X141492812Y-120439819D01*
X141625898Y-120440938D01*
X141884657Y-120435200D01*
X142057645Y-120420372D01*
X142102211Y-120405411D01*
X142044352Y-120219557D01*
X141860098Y-120122216D01*
X141625898Y-120101139D01*
X141400992Y-120108364D01*
X141268077Y-120126595D01*
X141252713Y-120136666D01*
X141226286Y-120236523D01*
X141201149Y-120306566D01*
X141197349Y-120383771D01*
X141061418Y-120383771D01*
X141072578Y-120372809D01*
X141152306Y-120228564D01*
X141303370Y-120052538D01*
X141463266Y-120016189D01*
X141623782Y-119987335D01*
X141677462Y-119931239D01*
X141602172Y-119877719D01*
X141414407Y-119848266D01*
X141342676Y-119846289D01*
X141116477Y-119866036D01*
X140971490Y-119915083D01*
X140955388Y-119931239D01*
X140851682Y-120016083D01*
X140769436Y-119953015D01*
X140743014Y-119803814D01*
X140782706Y-119637165D01*
X140926800Y-119583343D01*
X140934151Y-119582972D01*
X141063350Y-119573430D01*
X141035680Y-119550812D01*
X140919211Y-119516916D01*
X140769503Y-119443486D01*
X140675054Y-119346041D01*
X140668415Y-119269277D01*
X140726027Y-119251640D01*
X140756899Y-119226156D01*
G37*
G36*
X140798919Y-116894283D02*
G01*
X140929085Y-116894283D01*
X140936949Y-116982523D01*
X141029206Y-117027388D01*
X141242753Y-117042303D01*
X141337663Y-117042945D01*
X141595546Y-117034493D01*
X141720884Y-117000185D01*
X141750576Y-116926596D01*
X141746240Y-116894283D01*
X141685747Y-116797247D01*
X141526551Y-116753056D01*
X141337663Y-116745620D01*
X141086512Y-116761978D01*
X140962214Y-116820937D01*
X140929085Y-116894283D01*
X140798919Y-116894283D01*
X140808979Y-116876541D01*
X140920815Y-116716306D01*
X141057343Y-116640827D01*
X141283541Y-116619292D01*
X141352678Y-116618733D01*
X141603925Y-116630294D01*
X141748586Y-116686934D01*
X141849440Y-116820267D01*
X141883615Y-116886097D01*
X141976840Y-117143544D01*
X142008917Y-117387870D01*
X141986417Y-117584718D01*
X141915913Y-117699730D01*
X141803978Y-117698550D01*
X141738020Y-117647182D01*
X141606588Y-117587497D01*
X141403725Y-117557935D01*
X141193167Y-117559322D01*
X141038651Y-117592482D01*
X140997863Y-117637594D01*
X141073141Y-117691165D01*
X141260829Y-117720596D01*
X141331878Y-117722544D01*
X141584430Y-117750593D01*
X141754863Y-117861300D01*
X141841577Y-117969269D01*
X141971061Y-118247053D01*
X142017261Y-118521443D01*
X141999340Y-118729759D01*
X141928855Y-118815506D01*
X141847362Y-118826891D01*
X141709321Y-118791317D01*
X141677462Y-118741942D01*
X141602099Y-118688746D01*
X141413832Y-118659158D01*
X141337663Y-118656992D01*
X141124879Y-118675832D01*
X141006528Y-118722899D01*
X140997863Y-118741942D01*
X140929058Y-118817307D01*
X140870438Y-118826891D01*
X140766664Y-118756069D01*
X140743014Y-118656992D01*
X140799160Y-118518404D01*
X140934151Y-118485791D01*
X141056804Y-118471520D01*
X141024120Y-118421102D01*
X141001919Y-118406447D01*
X140989646Y-118402142D01*
X141719937Y-118402142D01*
X141739195Y-118474868D01*
X141799873Y-118487092D01*
X141916103Y-118442740D01*
X141932311Y-118402142D01*
X141871341Y-118319624D01*
X141852375Y-118317192D01*
X141737324Y-118378942D01*
X141719937Y-118402142D01*
X140989646Y-118402142D01*
X140863919Y-118358040D01*
X140816652Y-118366658D01*
X140729555Y-118352321D01*
X140679276Y-118254595D01*
X140709804Y-118159838D01*
X140710893Y-118159032D01*
X140806927Y-118048170D01*
X140812390Y-118039573D01*
X140925217Y-118039573D01*
X140968429Y-118112532D01*
X141140298Y-118142825D01*
X141343891Y-118147293D01*
X141599510Y-118138597D01*
X141722773Y-118103390D01*
X141750741Y-118027995D01*
X141746697Y-117998630D01*
X141651380Y-117893127D01*
X141457726Y-117828572D01*
X141234104Y-117813135D01*
X141048884Y-117854984D01*
X140986573Y-117907802D01*
X140925217Y-118039573D01*
X140812390Y-118039573D01*
X140892396Y-117913681D01*
X140955591Y-117772677D01*
X140915117Y-117725294D01*
X140871158Y-117722544D01*
X140768113Y-117648466D01*
X140743014Y-117504444D01*
X140766013Y-117350297D01*
X140860265Y-117326132D01*
X140912913Y-117340269D01*
X141056856Y-117365562D01*
X141068939Y-117325892D01*
X141023742Y-117295128D01*
X141677462Y-117295128D01*
X141739731Y-117341869D01*
X141804887Y-117328514D01*
X141916661Y-117268218D01*
X141932311Y-117246231D01*
X141862943Y-117216535D01*
X141804887Y-117212845D01*
X141691817Y-117257302D01*
X141677462Y-117295128D01*
X141023742Y-117295128D01*
X140958531Y-117250741D01*
X140872691Y-117213701D01*
X140736699Y-117151665D01*
X140710875Y-117073904D01*
X140783934Y-116920712D01*
X140798919Y-116894283D01*
G37*
G36*
X153881193Y-116894283D02*
G01*
X154011360Y-116894283D01*
X154019224Y-116982523D01*
X154111480Y-117027388D01*
X154325027Y-117042303D01*
X154419937Y-117042945D01*
X154677820Y-117034493D01*
X154803158Y-117000185D01*
X154832850Y-116926596D01*
X154828514Y-116894283D01*
X154768022Y-116797247D01*
X154608825Y-116753056D01*
X154419937Y-116745620D01*
X154168786Y-116761978D01*
X154044488Y-116820937D01*
X154011360Y-116894283D01*
X153881193Y-116894283D01*
X153891253Y-116876541D01*
X154003089Y-116716306D01*
X154139617Y-116640827D01*
X154365815Y-116619292D01*
X154434952Y-116618733D01*
X154686200Y-116630294D01*
X154830860Y-116686934D01*
X154931714Y-116820267D01*
X154965889Y-116886097D01*
X155064613Y-117090525D01*
X155084967Y-117184785D01*
X155022876Y-117211505D01*
X154934649Y-117212845D01*
X154769009Y-117256280D01*
X154711636Y-117306895D01*
X154718364Y-117364765D01*
X154834048Y-117343646D01*
X154967200Y-117328019D01*
X155011975Y-117427659D01*
X155014586Y-117504444D01*
X154969844Y-117681523D01*
X154881376Y-117722544D01*
X154810359Y-117745798D01*
X154837499Y-117838014D01*
X154933119Y-117982284D01*
X155044837Y-118154190D01*
X155090032Y-118254885D01*
X155087565Y-118262915D01*
X154995876Y-118309560D01*
X154844686Y-118379699D01*
X154701286Y-118449027D01*
X154708058Y-118474888D01*
X154823449Y-118481343D01*
X154979800Y-118538050D01*
X155014586Y-118656992D01*
X154961469Y-118795357D01*
X154887161Y-118826891D01*
X154774112Y-118781021D01*
X154759736Y-118741942D01*
X154684373Y-118688746D01*
X154496106Y-118659158D01*
X154419937Y-118656992D01*
X154207154Y-118675832D01*
X154088802Y-118722899D01*
X154080137Y-118741942D01*
X154011332Y-118817307D01*
X153952713Y-118826891D01*
X153848939Y-118756069D01*
X153825288Y-118656992D01*
X153881435Y-118518404D01*
X154016425Y-118485791D01*
X154139078Y-118471520D01*
X154106395Y-118421102D01*
X154084193Y-118406447D01*
X153946193Y-118358040D01*
X153898926Y-118366658D01*
X153811829Y-118352321D01*
X153761550Y-118254595D01*
X153792079Y-118159838D01*
X153793167Y-118159032D01*
X153889201Y-118048170D01*
X153920684Y-117998630D01*
X154011360Y-117998630D01*
X154019224Y-118086871D01*
X154111480Y-118131736D01*
X154325027Y-118146651D01*
X154419937Y-118147293D01*
X154677820Y-118138840D01*
X154803158Y-118104533D01*
X154832850Y-118030944D01*
X154828514Y-117998630D01*
X154768022Y-117901595D01*
X154608825Y-117857404D01*
X154419937Y-117849968D01*
X154168786Y-117866325D01*
X154044488Y-117925284D01*
X154011360Y-117998630D01*
X153920684Y-117998630D01*
X153974670Y-117913681D01*
X154037865Y-117772677D01*
X153997391Y-117725294D01*
X153953433Y-117722544D01*
X153850388Y-117648466D01*
X153848493Y-117637594D01*
X154080137Y-117637594D01*
X154155501Y-117690789D01*
X154343768Y-117720377D01*
X154419937Y-117722544D01*
X154632720Y-117703703D01*
X154751071Y-117656636D01*
X154759736Y-117637594D01*
X154684373Y-117584398D01*
X154496106Y-117554810D01*
X154419937Y-117552644D01*
X154207154Y-117571485D01*
X154088802Y-117618551D01*
X154080137Y-117637594D01*
X153848493Y-117637594D01*
X153825288Y-117504444D01*
X153848287Y-117350297D01*
X153942540Y-117326132D01*
X153995188Y-117340269D01*
X154139130Y-117365562D01*
X154151213Y-117325892D01*
X154040805Y-117250741D01*
X153954966Y-117213701D01*
X153818974Y-117151665D01*
X153793149Y-117073904D01*
X153866208Y-116920712D01*
X153881193Y-116894283D01*
G37*
G36*
X146273105Y-119192479D02*
G01*
X146385661Y-119192479D01*
X146396410Y-119258489D01*
X146499325Y-119304673D01*
X146698042Y-119329817D01*
X146932686Y-119333973D01*
X147143384Y-119317193D01*
X147270260Y-119279531D01*
X147284151Y-119257708D01*
X147211841Y-119106832D01*
X147039851Y-118975093D01*
X146835594Y-118912394D01*
X146816927Y-118911841D01*
X146627391Y-118957330D01*
X146466280Y-119065182D01*
X146385661Y-119192479D01*
X146273105Y-119192479D01*
X146357302Y-119087109D01*
X146607909Y-118897545D01*
X146882060Y-118821051D01*
X147125515Y-118870840D01*
X147158688Y-118891905D01*
X147301845Y-119057045D01*
X147406502Y-119291935D01*
X147466044Y-119550900D01*
X147473859Y-119788268D01*
X147423332Y-119958365D01*
X147321498Y-120016189D01*
X147211780Y-119968653D01*
X147199201Y-119931239D01*
X147123274Y-119880577D01*
X146931170Y-119850187D01*
X146816927Y-119846289D01*
X146588947Y-119863162D01*
X146452193Y-119905852D01*
X146434653Y-119931239D01*
X146508421Y-119991082D01*
X146685946Y-120016188D01*
X146687321Y-120016189D01*
X146922328Y-120093597D01*
X147094761Y-120308176D01*
X147187744Y-120633459D01*
X147199201Y-120818994D01*
X147160675Y-121030139D01*
X147066795Y-121130442D01*
X146950105Y-121096195D01*
X146901877Y-121035587D01*
X146790495Y-120981287D01*
X146579220Y-120952189D01*
X146514589Y-120950637D01*
X146303665Y-120969741D01*
X146187591Y-121017386D01*
X146179803Y-121035587D01*
X146111661Y-121112435D01*
X146061301Y-121120537D01*
X145968306Y-121039632D01*
X145913160Y-120807459D01*
X145910394Y-120780737D01*
X145907231Y-120663178D01*
X146038769Y-120663178D01*
X146052378Y-120695788D01*
X146164912Y-120777566D01*
X146189830Y-120780737D01*
X146235887Y-120728397D01*
X146222278Y-120695788D01*
X146901877Y-120695788D01*
X146921135Y-120768513D01*
X146981813Y-120780737D01*
X147098043Y-120736385D01*
X147114251Y-120695788D01*
X147053280Y-120613269D01*
X147034315Y-120610838D01*
X146919264Y-120672588D01*
X146901877Y-120695788D01*
X146222278Y-120695788D01*
X146109744Y-120614009D01*
X146084826Y-120610838D01*
X146038769Y-120663178D01*
X145907231Y-120663178D01*
X145904688Y-120568650D01*
X145929680Y-120450022D01*
X145943946Y-120440938D01*
X145994255Y-120383589D01*
X146124421Y-120383589D01*
X146210387Y-120424556D01*
X146418901Y-120439759D01*
X146555977Y-120440938D01*
X146824515Y-120436719D01*
X146955884Y-120414526D01*
X146982774Y-120360060D01*
X146944352Y-120271038D01*
X146822097Y-120149110D01*
X146600560Y-120103092D01*
X146516614Y-120101139D01*
X146304825Y-120109093D01*
X146187875Y-120128942D01*
X146179803Y-120136666D01*
X146153376Y-120236523D01*
X146128239Y-120306566D01*
X146124421Y-120383589D01*
X145994255Y-120383589D01*
X146003886Y-120372610D01*
X146009903Y-120323915D01*
X146069730Y-120171936D01*
X146125773Y-120110729D01*
X146198600Y-119974269D01*
X146189177Y-119730925D01*
X146180636Y-119680946D01*
X146164734Y-119521821D01*
X146272569Y-119521821D01*
X146333430Y-119580798D01*
X146349703Y-119591440D01*
X146477531Y-119665616D01*
X146516932Y-119643556D01*
X146519602Y-119591440D01*
X146516987Y-119588774D01*
X147114251Y-119588774D01*
X147176520Y-119635514D01*
X147241676Y-119622160D01*
X147353450Y-119561864D01*
X147369101Y-119539876D01*
X147299732Y-119510180D01*
X147241676Y-119506490D01*
X147128606Y-119550947D01*
X147114251Y-119588774D01*
X146516987Y-119588774D01*
X146449558Y-119520041D01*
X146370940Y-119507791D01*
X146272569Y-119521821D01*
X146164734Y-119521821D01*
X146156809Y-119442513D01*
X146212901Y-119267823D01*
X146273105Y-119192479D01*
G37*
G36*
X148359454Y-116894283D02*
G01*
X148489190Y-116894283D01*
X148496320Y-116979672D01*
X148583326Y-117024745D01*
X148786294Y-117041471D01*
X148937433Y-117042945D01*
X149205045Y-117038887D01*
X149335458Y-117016791D01*
X149361345Y-116961770D01*
X149320476Y-116868428D01*
X149222656Y-116754867D01*
X149058260Y-116714594D01*
X148872233Y-116719765D01*
X148620570Y-116762035D01*
X148503900Y-116850483D01*
X148489190Y-116894283D01*
X148359454Y-116894283D01*
X148369514Y-116876541D01*
X148481350Y-116716306D01*
X148617878Y-116640827D01*
X148844076Y-116619292D01*
X148913213Y-116618733D01*
X149164460Y-116630294D01*
X149309121Y-116686934D01*
X149409975Y-116820267D01*
X149444150Y-116886097D01*
X149537222Y-117142739D01*
X149575851Y-117398926D01*
X149559385Y-117606144D01*
X149487172Y-117715880D01*
X149455385Y-117722544D01*
X149310754Y-117670771D01*
X149280472Y-117637594D01*
X149169090Y-117583294D01*
X148957815Y-117554196D01*
X148893184Y-117552644D01*
X148682261Y-117571748D01*
X148566186Y-117619393D01*
X148558398Y-117637594D01*
X148633453Y-117692519D01*
X148819552Y-117722218D01*
X148876960Y-117723844D01*
X149108151Y-117740279D01*
X149265938Y-117779045D01*
X149280472Y-117787557D01*
X149415222Y-117947096D01*
X149515429Y-118174693D01*
X149573131Y-118423033D01*
X149580365Y-118644798D01*
X149529167Y-118792675D01*
X149455385Y-118826891D01*
X149310754Y-118775119D01*
X149280472Y-118741942D01*
X149169090Y-118687642D01*
X148957815Y-118658544D01*
X148893184Y-118656992D01*
X148682261Y-118676096D01*
X148566186Y-118723740D01*
X148558398Y-118741942D01*
X148490286Y-118818852D01*
X148440268Y-118826891D01*
X148346579Y-118747604D01*
X148286404Y-118530429D01*
X148283531Y-118508329D01*
X148277369Y-118404808D01*
X148388499Y-118404808D01*
X148457345Y-118477822D01*
X148515923Y-118487092D01*
X148629264Y-118468917D01*
X148643348Y-118453706D01*
X148580816Y-118402142D01*
X149280472Y-118402142D01*
X149299730Y-118474868D01*
X149360408Y-118487092D01*
X149476638Y-118442740D01*
X149492847Y-118402142D01*
X149431876Y-118319624D01*
X149412910Y-118317192D01*
X149297860Y-118378942D01*
X149280472Y-118402142D01*
X148580816Y-118402142D01*
X148576921Y-118398930D01*
X148515923Y-118371422D01*
X148406537Y-118369656D01*
X148388499Y-118404808D01*
X148277369Y-118404808D01*
X148270641Y-118291761D01*
X148287574Y-118158863D01*
X148295475Y-118147293D01*
X148339249Y-118089944D01*
X148503016Y-118089944D01*
X148588983Y-118130911D01*
X148797497Y-118146114D01*
X148934573Y-118147293D01*
X149203111Y-118143073D01*
X149334479Y-118120881D01*
X149361369Y-118066414D01*
X149322947Y-117977393D01*
X149200693Y-117855464D01*
X148979155Y-117809447D01*
X148895209Y-117807493D01*
X148683420Y-117815448D01*
X148566470Y-117835296D01*
X148558398Y-117843020D01*
X148531972Y-117942877D01*
X148506835Y-118012920D01*
X148503016Y-118089944D01*
X148339249Y-118089944D01*
X148371876Y-118047200D01*
X148452931Y-117913681D01*
X148516126Y-117772677D01*
X148475652Y-117725294D01*
X148431693Y-117722544D01*
X148328649Y-117648466D01*
X148303549Y-117504444D01*
X148326548Y-117350297D01*
X148420801Y-117326132D01*
X148473449Y-117340269D01*
X148617391Y-117365562D01*
X148629474Y-117325892D01*
X148584277Y-117295128D01*
X149237997Y-117295128D01*
X149300266Y-117341869D01*
X149365422Y-117328514D01*
X149477196Y-117268218D01*
X149492847Y-117246231D01*
X149423478Y-117216535D01*
X149365422Y-117212845D01*
X149252352Y-117257302D01*
X149237997Y-117295128D01*
X148584277Y-117295128D01*
X148519066Y-117250741D01*
X148433226Y-117213701D01*
X148297234Y-117151665D01*
X148271410Y-117073904D01*
X148344469Y-116920712D01*
X148359454Y-116894283D01*
G37*
G36*
X146256648Y-116970961D02*
G01*
X146400573Y-116970961D01*
X146462857Y-117021819D01*
X146633691Y-117040691D01*
X146824880Y-117042945D01*
X147078334Y-117037005D01*
X147245135Y-117021707D01*
X147284151Y-117007418D01*
X147224369Y-116819668D01*
X147035780Y-116722331D01*
X146817746Y-116703146D01*
X146575358Y-116719739D01*
X146452607Y-116782904D01*
X146410038Y-116873045D01*
X146400573Y-116970961D01*
X146256648Y-116970961D01*
X146334246Y-116830570D01*
X146421843Y-116695963D01*
X146560004Y-116633704D01*
X146806881Y-116618206D01*
X146816927Y-116618196D01*
X147068114Y-116632650D01*
X147208779Y-116693071D01*
X147297072Y-116825044D01*
X147299608Y-116830570D01*
X147387254Y-116986095D01*
X147448694Y-117042945D01*
X147474225Y-117117830D01*
X147474631Y-117305047D01*
X147468610Y-117382744D01*
X147417921Y-117624612D01*
X147330548Y-117721607D01*
X147319524Y-117722544D01*
X147247777Y-117752907D01*
X147272263Y-117871773D01*
X147299608Y-117934918D01*
X147387254Y-118090443D01*
X147448694Y-118147293D01*
X147474225Y-118222178D01*
X147474631Y-118409395D01*
X147468610Y-118487092D01*
X147412813Y-118719382D01*
X147316158Y-118830379D01*
X147202828Y-118800322D01*
X147156726Y-118741942D01*
X147043559Y-118684084D01*
X146838456Y-118657226D01*
X146816927Y-118656992D01*
X146607108Y-118679880D01*
X146481829Y-118735618D01*
X146477127Y-118741942D01*
X146360133Y-118838835D01*
X146251214Y-118792235D01*
X146185847Y-118626323D01*
X146179803Y-118539277D01*
X146198936Y-118402142D01*
X146264753Y-118402142D01*
X146333899Y-118476695D01*
X146397191Y-118487092D01*
X146468472Y-118453706D01*
X147114251Y-118453706D01*
X147183620Y-118483402D01*
X147241676Y-118487092D01*
X147354746Y-118442635D01*
X147369101Y-118404808D01*
X147306832Y-118358068D01*
X147241676Y-118371422D01*
X147129902Y-118431718D01*
X147114251Y-118453706D01*
X146468472Y-118453706D01*
X146485119Y-118445909D01*
X146477127Y-118402142D01*
X146368523Y-118320433D01*
X146344689Y-118317192D01*
X146267041Y-118381987D01*
X146264753Y-118402142D01*
X146198936Y-118402142D01*
X146219500Y-118254754D01*
X146283484Y-118074054D01*
X146394993Y-118074054D01*
X146431186Y-118124784D01*
X146576056Y-118144286D01*
X146813938Y-118147293D01*
X147070768Y-118136185D01*
X147241558Y-118107515D01*
X147284151Y-118079333D01*
X147212355Y-117930628D01*
X147035097Y-117837862D01*
X146809575Y-117807899D01*
X146592985Y-117847601D01*
X146442523Y-117963833D01*
X146434653Y-117977393D01*
X146394993Y-118074054D01*
X146283484Y-118074054D01*
X146306752Y-118008341D01*
X146383397Y-117836691D01*
X146369127Y-117759975D01*
X146315236Y-117739186D01*
X146247214Y-117657497D01*
X146240456Y-117637594D01*
X146434653Y-117637594D01*
X146510580Y-117688256D01*
X146702684Y-117718646D01*
X146816927Y-117722544D01*
X147044906Y-117705671D01*
X147181660Y-117662981D01*
X147199201Y-117637594D01*
X147123274Y-117586932D01*
X146931170Y-117556542D01*
X146816927Y-117552644D01*
X146588947Y-117569517D01*
X146452193Y-117612206D01*
X146434653Y-117637594D01*
X146240456Y-117637594D01*
X146188388Y-117484250D01*
X146150485Y-117282224D01*
X146148797Y-117228175D01*
X146272569Y-117228175D01*
X146333430Y-117287152D01*
X146349703Y-117297794D01*
X146477531Y-117371971D01*
X146516932Y-117349911D01*
X146519602Y-117297794D01*
X147156726Y-117297794D01*
X147160609Y-117376199D01*
X147189174Y-117382744D01*
X147309266Y-117320752D01*
X147326626Y-117297794D01*
X147322743Y-117219389D01*
X147294178Y-117212845D01*
X147174086Y-117274837D01*
X147156726Y-117297794D01*
X146519602Y-117297794D01*
X146449558Y-117226396D01*
X146370940Y-117214145D01*
X146272569Y-117228175D01*
X146148797Y-117228175D01*
X146145237Y-117114200D01*
X146184370Y-117042956D01*
X146185160Y-117042945D01*
X146254517Y-116974816D01*
X146256648Y-116970961D01*
G37*
G36*
X148374272Y-119173064D02*
G01*
X148468432Y-119173064D01*
X148521227Y-119278308D01*
X148734565Y-119330307D01*
X148898198Y-119336590D01*
X149154220Y-119326999D01*
X149281804Y-119287908D01*
X149321828Y-119203839D01*
X149322947Y-119175779D01*
X149250691Y-119025720D01*
X149073738Y-118931415D01*
X148851806Y-118905804D01*
X148644615Y-118961830D01*
X148575388Y-119013781D01*
X148468432Y-119173064D01*
X148374272Y-119173064D01*
X148524208Y-118967097D01*
X148677528Y-118860048D01*
X148883691Y-118828790D01*
X148923491Y-118828192D01*
X149196239Y-118904295D01*
X149417684Y-119108191D01*
X149552773Y-119398550D01*
X149577796Y-119599623D01*
X149544221Y-119852351D01*
X149454356Y-119991856D01*
X149452650Y-119992832D01*
X149375589Y-120061281D01*
X149388944Y-120170205D01*
X149452650Y-120304088D01*
X149541076Y-120546187D01*
X149576545Y-120795739D01*
X149558885Y-121001736D01*
X149487927Y-121113168D01*
X149455385Y-121120537D01*
X149310754Y-121068764D01*
X149280472Y-121035587D01*
X149169090Y-120981287D01*
X148957815Y-120952189D01*
X148893184Y-120950637D01*
X148682261Y-120969741D01*
X148566186Y-121017386D01*
X148558398Y-121035587D01*
X148633453Y-121090512D01*
X148819552Y-121120212D01*
X148876960Y-121121838D01*
X149108151Y-121138272D01*
X149265938Y-121177038D01*
X149280472Y-121185550D01*
X149444361Y-121389856D01*
X149552447Y-121685060D01*
X149577796Y-121905170D01*
X149577796Y-122182410D01*
X148317178Y-122182410D01*
X148281052Y-121885085D01*
X148276670Y-121802802D01*
X148388499Y-121802802D01*
X148457345Y-121875816D01*
X148515923Y-121885085D01*
X148629264Y-121866910D01*
X148643348Y-121851699D01*
X148580816Y-121800135D01*
X149280472Y-121800135D01*
X149299730Y-121872861D01*
X149360408Y-121885085D01*
X149476638Y-121840733D01*
X149492847Y-121800135D01*
X149431876Y-121717617D01*
X149412910Y-121715186D01*
X149297860Y-121776936D01*
X149280472Y-121800135D01*
X148580816Y-121800135D01*
X148576921Y-121796923D01*
X148515923Y-121769415D01*
X148406537Y-121767650D01*
X148388499Y-121802802D01*
X148276670Y-121802802D01*
X148269919Y-121676034D01*
X148289864Y-121552200D01*
X148295475Y-121545286D01*
X148371876Y-121445194D01*
X148397197Y-121403483D01*
X148509686Y-121403483D01*
X148515696Y-121506980D01*
X148647273Y-121579337D01*
X148823867Y-121620382D01*
X148936808Y-121612134D01*
X149135381Y-121578549D01*
X149139995Y-121577629D01*
X149314786Y-121526753D01*
X149352522Y-121449957D01*
X149317524Y-121365254D01*
X149189214Y-121248230D01*
X148948135Y-121206262D01*
X148895209Y-121205487D01*
X148683420Y-121213441D01*
X148566470Y-121233289D01*
X148558398Y-121241014D01*
X148532061Y-121341180D01*
X148509686Y-121403483D01*
X148397197Y-121403483D01*
X148452931Y-121311674D01*
X148516126Y-121170671D01*
X148475652Y-121123287D01*
X148431693Y-121120537D01*
X148328649Y-121046459D01*
X148303549Y-120902438D01*
X148326548Y-120748290D01*
X148420801Y-120724126D01*
X148473449Y-120738263D01*
X148617445Y-120763924D01*
X148629838Y-120724862D01*
X148587494Y-120695788D01*
X149237997Y-120695788D01*
X149298968Y-120778306D01*
X149317933Y-120780737D01*
X149432984Y-120718988D01*
X149450372Y-120695788D01*
X149431114Y-120623062D01*
X149370435Y-120610838D01*
X149254206Y-120655190D01*
X149237997Y-120695788D01*
X148587494Y-120695788D01*
X148520792Y-120649989D01*
X148428303Y-120609822D01*
X148285966Y-120544982D01*
X148265397Y-120467023D01*
X148353510Y-120314021D01*
X148362793Y-120299843D01*
X148366724Y-120292276D01*
X148489190Y-120292276D01*
X148496320Y-120377665D01*
X148583326Y-120422739D01*
X148786294Y-120439464D01*
X148937433Y-120440938D01*
X149205045Y-120436881D01*
X149335458Y-120414784D01*
X149361345Y-120359764D01*
X149320476Y-120266421D01*
X149222656Y-120152860D01*
X149058260Y-120112588D01*
X148872233Y-120117759D01*
X148620570Y-120160028D01*
X148503900Y-120248476D01*
X148489190Y-120292276D01*
X148366724Y-120292276D01*
X148452534Y-120127101D01*
X148426653Y-120044970D01*
X148407938Y-120036827D01*
X148327470Y-119935116D01*
X148326800Y-119931239D01*
X148515923Y-119931239D01*
X148558044Y-119983618D01*
X148747364Y-120012277D01*
X148893184Y-120016189D01*
X149137118Y-120001077D01*
X149292841Y-119962394D01*
X149322947Y-119931239D01*
X149247081Y-119880297D01*
X149055396Y-119849975D01*
X148945686Y-119846289D01*
X148705598Y-119863883D01*
X148544370Y-119908189D01*
X148515923Y-119931239D01*
X148326800Y-119931239D01*
X148303549Y-119796735D01*
X148345698Y-119634278D01*
X148494686Y-119584733D01*
X148599232Y-119574682D01*
X148596837Y-119571130D01*
X149274841Y-119571130D01*
X149358343Y-119584733D01*
X149468524Y-119569115D01*
X149469839Y-119540116D01*
X149356143Y-119519837D01*
X149307019Y-119533409D01*
X149274841Y-119571130D01*
X148596837Y-119571130D01*
X148580917Y-119547516D01*
X148422734Y-119490846D01*
X148321826Y-119458815D01*
X148266838Y-119398907D01*
X148318462Y-119261787D01*
X148362338Y-119189458D01*
X148374272Y-119173064D01*
G37*
G36*
X142372135Y-109514814D02*
G01*
X146774452Y-109514814D01*
X146775799Y-110141406D01*
X146782519Y-110620836D01*
X146798628Y-110975839D01*
X146828146Y-111229147D01*
X146875088Y-111403494D01*
X146943472Y-111521612D01*
X147037316Y-111606236D01*
X147156726Y-111677961D01*
X147310116Y-111715246D01*
X147602327Y-111745061D01*
X148002361Y-111765194D01*
X148479221Y-111773431D01*
X148494686Y-111773472D01*
X149662746Y-111776055D01*
X149662746Y-109510726D01*
X149662746Y-108802811D01*
X151106893Y-108802811D01*
X151106893Y-109510726D01*
X151113272Y-109842502D01*
X151130249Y-110105981D01*
X151154588Y-110257465D01*
X151163527Y-110275275D01*
X151269288Y-110301307D01*
X151501222Y-110321027D01*
X151815629Y-110331198D01*
X151928075Y-110331908D01*
X152635990Y-110331908D01*
X152635990Y-109567360D01*
X152975790Y-109567360D01*
X152976314Y-110381801D01*
X152978399Y-111043086D01*
X152982811Y-111567956D01*
X152990317Y-111973155D01*
X153001683Y-112275423D01*
X153017676Y-112491503D01*
X153039062Y-112638135D01*
X153066609Y-112732063D01*
X153101084Y-112790028D01*
X153124452Y-112813677D01*
X153216808Y-112887424D01*
X153317756Y-112943100D01*
X153450777Y-112982958D01*
X153639356Y-113009252D01*
X153906976Y-113024233D01*
X154277121Y-113030156D01*
X154773274Y-113029272D01*
X155324431Y-113024732D01*
X155927177Y-113017896D01*
X156383459Y-113008842D01*
X156716710Y-112995451D01*
X156950365Y-112975600D01*
X157107858Y-112947170D01*
X157212624Y-112908040D01*
X157288098Y-112856089D01*
X157299514Y-112845999D01*
X157346005Y-112799534D01*
X157383639Y-112741572D01*
X157413351Y-112655019D01*
X157436077Y-112522777D01*
X157452753Y-112327752D01*
X157464314Y-112052848D01*
X157471696Y-111680968D01*
X157475834Y-111195017D01*
X157477664Y-110577900D01*
X157478121Y-109812519D01*
X157478131Y-109582120D01*
X157477477Y-108765468D01*
X157475031Y-108101940D01*
X157470071Y-107574763D01*
X157461873Y-107167165D01*
X157449711Y-106862373D01*
X157432863Y-106643616D01*
X157410604Y-106494119D01*
X157382211Y-106397111D01*
X157346960Y-106335820D01*
X157337540Y-106324717D01*
X157279940Y-106274698D01*
X157194947Y-106236661D01*
X157060734Y-106208990D01*
X156855479Y-106190066D01*
X156557357Y-106178273D01*
X156144543Y-106171992D01*
X155595212Y-106169605D01*
X155241721Y-106169366D01*
X154604057Y-106170699D01*
X154114688Y-106175658D01*
X153752022Y-106185680D01*
X153494469Y-106202203D01*
X153320437Y-106226666D01*
X153208335Y-106260508D01*
X153136572Y-106305166D01*
X153131141Y-106309957D01*
X153090646Y-106355757D01*
X153057844Y-106423664D01*
X153031930Y-106530548D01*
X153012100Y-106693282D01*
X152997548Y-106928739D01*
X152987470Y-107253788D01*
X152981061Y-107685303D01*
X152977518Y-108240155D01*
X152976034Y-108935217D01*
X152975790Y-109567360D01*
X152635990Y-109567360D01*
X152635990Y-108802811D01*
X151106893Y-108802811D01*
X149662746Y-108802811D01*
X149662746Y-107358664D01*
X148442430Y-107358664D01*
X147955531Y-107360739D01*
X147607475Y-107369485D01*
X147367232Y-107388687D01*
X147203771Y-107422127D01*
X147086059Y-107473588D01*
X146998283Y-107534729D01*
X146774452Y-107710795D01*
X146774452Y-109514814D01*
X142372135Y-109514814D01*
X142368224Y-109511533D01*
X142007810Y-109059149D01*
X141873369Y-108821028D01*
X141798037Y-108663614D01*
X141740020Y-108520542D01*
X141696494Y-108366719D01*
X141664639Y-108177051D01*
X141641633Y-107926447D01*
X141624655Y-107589812D01*
X141610882Y-107142054D01*
X141597493Y-106558079D01*
X141592512Y-106323340D01*
X141550037Y-104311093D01*
X141300017Y-104050395D01*
X140947697Y-103788108D01*
X140565190Y-103679359D01*
X140184167Y-103719445D01*
X139836295Y-103903665D01*
X139553244Y-104227315D01*
X139502544Y-104317288D01*
X139478731Y-104387709D01*
X139458196Y-104507844D01*
X139440713Y-104689083D01*
X139426061Y-104942818D01*
X139414015Y-105280438D01*
X139404352Y-105713334D01*
X139396848Y-106252897D01*
X139391281Y-106910516D01*
X139387426Y-107697584D01*
X139385061Y-108625489D01*
X139383962Y-109705623D01*
X139383816Y-110370164D01*
X139383816Y-116193447D01*
X137939669Y-116193447D01*
X137939669Y-110250145D01*
X137939800Y-109100343D01*
X137940421Y-108107771D01*
X137941875Y-107259757D01*
X137944507Y-106543632D01*
X137948658Y-105946724D01*
X137954673Y-105456365D01*
X137962895Y-105059882D01*
X137973666Y-104744606D01*
X137987331Y-104497866D01*
X138004233Y-104306992D01*
X138024714Y-104159313D01*
X138049118Y-104042159D01*
X138077789Y-103942860D01*
X138111069Y-103848746D01*
X138113265Y-103842868D01*
X138291003Y-103484167D01*
X138532840Y-103135308D01*
X138631001Y-103024278D01*
X139134433Y-102616090D01*
X139692886Y-102352925D01*
X140281211Y-102231578D01*
X140874262Y-102248844D01*
X141446891Y-102401518D01*
X141973950Y-102686397D01*
X142430294Y-103100275D01*
X142742191Y-103548192D01*
X142994184Y-104003146D01*
X143036659Y-106041942D01*
X143051377Y-106692669D01*
X143066364Y-107195818D01*
X143083617Y-107573700D01*
X143105132Y-107848628D01*
X143132907Y-108042914D01*
X143168938Y-108178871D01*
X143215222Y-108278809D01*
X143240411Y-108318691D01*
X143444254Y-108549725D01*
X143704784Y-108698609D01*
X144057736Y-108778563D01*
X144538849Y-108802804D01*
X144549276Y-108802811D01*
X145220832Y-108802811D01*
X145268486Y-108172711D01*
X145361081Y-107558482D01*
X145545287Y-107061631D01*
X145836005Y-106647937D01*
X146005675Y-106479674D01*
X146203730Y-106307437D01*
X146385182Y-106174256D01*
X146575143Y-106075120D01*
X146798726Y-106005019D01*
X147081044Y-105958942D01*
X147447207Y-105931878D01*
X147922330Y-105918818D01*
X148531523Y-105914749D01*
X148838186Y-105914517D01*
X149453253Y-105914989D01*
X149921220Y-105917838D01*
X150264888Y-105925216D01*
X150507055Y-105939273D01*
X150670522Y-105962162D01*
X150778089Y-105996031D01*
X150852554Y-106043034D01*
X150916720Y-106105320D01*
X150922186Y-106111129D01*
X151031751Y-106265422D01*
X151088408Y-106466102D01*
X151106590Y-106769596D01*
X151106893Y-106833203D01*
X151106893Y-107358664D01*
X152635990Y-107358664D01*
X152635990Y-106842430D01*
X152645920Y-106537577D01*
X152689473Y-106338553D01*
X152787298Y-106181785D01*
X152884305Y-106077882D01*
X153132620Y-105829567D01*
X155215689Y-105829567D01*
X155863103Y-105829907D01*
X156362701Y-105832227D01*
X156736563Y-105838476D01*
X157006772Y-105850604D01*
X157195411Y-105870561D01*
X157324562Y-105900295D01*
X157416306Y-105941757D01*
X157492727Y-105996896D01*
X157537106Y-106034514D01*
X157775455Y-106239462D01*
X157799591Y-109521094D01*
X157823726Y-112802726D01*
X157321300Y-113305152D01*
X153132620Y-113305152D01*
X152884305Y-113056837D01*
X152742443Y-112894333D01*
X152667660Y-112729004D01*
X152639307Y-112497278D01*
X152635990Y-112292289D01*
X152635990Y-111776055D01*
X151106893Y-111776055D01*
X151106893Y-112289616D01*
X151095189Y-112601221D01*
X151048529Y-112803821D01*
X150949595Y-112957390D01*
X150898380Y-113011689D01*
X150825118Y-113081186D01*
X150747467Y-113133221D01*
X150641420Y-113170319D01*
X150482968Y-113195007D01*
X150248103Y-113209813D01*
X149912817Y-113217263D01*
X149453102Y-113219884D01*
X148917192Y-113220202D01*
X148223136Y-113216347D01*
X147673388Y-113201679D01*
X147242470Y-113171545D01*
X146904903Y-113121293D01*
X146635206Y-113046270D01*
X146407902Y-112941823D01*
X146197511Y-112803301D01*
X146065934Y-112699538D01*
X145690484Y-112285435D01*
X145432858Y-111756726D01*
X145290431Y-111107540D01*
X145272359Y-110923699D01*
X145220173Y-110246958D01*
X144440873Y-110246958D01*
X143917117Y-110226327D01*
X143481118Y-110168123D01*
X143268879Y-110113154D01*
X142803331Y-109876525D01*
X142372135Y-109514814D01*
G37*
G36*
X148359764Y-115775071D02*
G01*
X148468432Y-115775071D01*
X148521227Y-115880315D01*
X148734565Y-115932314D01*
X148898198Y-115938597D01*
X149154220Y-115929006D01*
X149281804Y-115889915D01*
X149321828Y-115805846D01*
X149322947Y-115777786D01*
X149250691Y-115627727D01*
X149073738Y-115533422D01*
X148851806Y-115507811D01*
X148644615Y-115563837D01*
X148575388Y-115615788D01*
X148468432Y-115775071D01*
X148359764Y-115775071D01*
X148473689Y-115631417D01*
X148543229Y-115553375D01*
X148751487Y-115436654D01*
X149013081Y-115446708D01*
X149277341Y-115575966D01*
X149392161Y-115680208D01*
X149586974Y-115844887D01*
X149733596Y-115850375D01*
X149785724Y-115777786D01*
X149917596Y-115777786D01*
X149942928Y-115874717D01*
X150046179Y-115923020D01*
X150268230Y-115938173D01*
X150342345Y-115938597D01*
X150626510Y-115920068D01*
X150756033Y-115862508D01*
X150767094Y-115828162D01*
X150692126Y-115647700D01*
X150504646Y-115532802D01*
X150374778Y-115513848D01*
X150084480Y-115556738D01*
X149936527Y-115683357D01*
X149917596Y-115777786D01*
X149785724Y-115777786D01*
X149844260Y-115696273D01*
X149856442Y-115665041D01*
X149987633Y-115521228D01*
X150208596Y-115450120D01*
X150460208Y-115450345D01*
X150683343Y-115520529D01*
X150818877Y-115659300D01*
X150828441Y-115687616D01*
X150895807Y-115823254D01*
X150946901Y-115853647D01*
X151024294Y-115896711D01*
X150989848Y-115992179D01*
X150866849Y-116089463D01*
X150830806Y-116105849D01*
X150715176Y-116163158D01*
X150755943Y-116186181D01*
X150788331Y-116188062D01*
X150909812Y-116260369D01*
X150936994Y-116405821D01*
X150977990Y-116573598D01*
X151100671Y-116618196D01*
X151257548Y-116695055D01*
X151398359Y-116893753D01*
X151497976Y-117166472D01*
X151531643Y-117438271D01*
X151549190Y-117633555D01*
X151627302Y-117711120D01*
X151745838Y-117722544D01*
X151955386Y-117792802D01*
X152056798Y-117934918D01*
X152144445Y-118090443D01*
X152205884Y-118147293D01*
X152231923Y-118221994D01*
X152232240Y-118407980D01*
X152226961Y-118474921D01*
X152217929Y-118689932D01*
X152270177Y-118794715D01*
X152419933Y-118847087D01*
X152466134Y-118856633D01*
X152695414Y-118955043D01*
X152781129Y-119081178D01*
X152848351Y-119219192D01*
X152900748Y-119251640D01*
X152978140Y-119294705D01*
X152943694Y-119390172D01*
X152820696Y-119487456D01*
X152784653Y-119503843D01*
X152669023Y-119561151D01*
X152709789Y-119584174D01*
X152742178Y-119586055D01*
X152863658Y-119658362D01*
X152890840Y-119803814D01*
X152918002Y-119955209D01*
X153033782Y-120010911D01*
X153147511Y-120016189D01*
X153367743Y-120062296D01*
X153499399Y-120225192D01*
X153500946Y-120228564D01*
X153631908Y-120405747D01*
X153776125Y-120416714D01*
X153887387Y-120292276D01*
X154011360Y-120292276D01*
X154019224Y-120380517D01*
X154111480Y-120425382D01*
X154325027Y-120440297D01*
X154419937Y-120440938D01*
X154677820Y-120432486D01*
X154803158Y-120398178D01*
X154832850Y-120324590D01*
X154828514Y-120292276D01*
X154768022Y-120195241D01*
X154608825Y-120151049D01*
X154419937Y-120143614D01*
X154168786Y-120159971D01*
X154044488Y-120218930D01*
X154011360Y-120292276D01*
X153887387Y-120292276D01*
X153915894Y-120260393D01*
X153919431Y-120253862D01*
X153976041Y-120100053D01*
X153922419Y-120034408D01*
X153835517Y-119934136D01*
X153826759Y-119772955D01*
X153886904Y-119631268D01*
X153973950Y-119586055D01*
X154051329Y-119569327D01*
X153973939Y-119521462D01*
X153931475Y-119503843D01*
X153792364Y-119412831D01*
X153736761Y-119312678D01*
X153787953Y-119253971D01*
X153815380Y-119251640D01*
X153844183Y-119226156D01*
X153995188Y-119226156D01*
X154066452Y-119300038D01*
X154287837Y-119333715D01*
X154419937Y-119336590D01*
X154704102Y-119318061D01*
X154833625Y-119260502D01*
X154844686Y-119226156D01*
X154769210Y-119044700D01*
X154573449Y-118932146D01*
X154419937Y-118911841D01*
X154174727Y-118967693D01*
X154022627Y-119112557D01*
X153995188Y-119226156D01*
X153844183Y-119226156D01*
X153895139Y-119181072D01*
X153933840Y-119085609D01*
X154050193Y-118933952D01*
X154262303Y-118853337D01*
X154511596Y-118843762D01*
X154739495Y-118905230D01*
X154887425Y-119037738D01*
X154906033Y-119085609D01*
X154973399Y-119221247D01*
X155024493Y-119251640D01*
X155101886Y-119294705D01*
X155067440Y-119390172D01*
X154944441Y-119487456D01*
X154908398Y-119503843D01*
X154792768Y-119561151D01*
X154833535Y-119584174D01*
X154865923Y-119586055D01*
X154987404Y-119658362D01*
X155014586Y-119803814D01*
X154977185Y-119973323D01*
X154888753Y-120012662D01*
X154802211Y-119931239D01*
X154690656Y-119876594D01*
X154479942Y-119847668D01*
X154419937Y-119846289D01*
X154195423Y-119866326D01*
X154052432Y-119916001D01*
X154037663Y-119931239D01*
X154079529Y-119983842D01*
X154268230Y-120012453D01*
X154408701Y-120016189D01*
X154668213Y-120026104D01*
X154817668Y-120074929D01*
X154916594Y-120191288D01*
X154965889Y-120284090D01*
X155064613Y-120488518D01*
X155084967Y-120582779D01*
X155022876Y-120609498D01*
X154934649Y-120610838D01*
X154767584Y-120656370D01*
X154708991Y-120709169D01*
X154711773Y-120773433D01*
X154831402Y-120759597D01*
X154969629Y-120753583D01*
X155013261Y-120865567D01*
X155014586Y-120916115D01*
X154968600Y-121081237D01*
X154886441Y-121120537D01*
X154804982Y-121143911D01*
X154829091Y-121243813D01*
X154865204Y-121311674D01*
X154977731Y-121480603D01*
X155054600Y-121561904D01*
X155106044Y-121615688D01*
X155063918Y-121669503D01*
X154899672Y-121752700D01*
X154844686Y-121777692D01*
X154701286Y-121847020D01*
X154708058Y-121872881D01*
X154823449Y-121879336D01*
X154982396Y-121938602D01*
X155014586Y-122033748D01*
X154991779Y-122112637D01*
X154900006Y-122157862D01*
X154704238Y-122178180D01*
X154419937Y-122182410D01*
X154104378Y-122176708D01*
X153923478Y-122153765D01*
X153842208Y-122104823D01*
X153825288Y-122033748D01*
X153893876Y-121909663D01*
X154016425Y-121883784D01*
X154139078Y-121869514D01*
X154106395Y-121819095D01*
X154084193Y-121804440D01*
X153946193Y-121756033D01*
X153898926Y-121764652D01*
X153811829Y-121750315D01*
X153761550Y-121652588D01*
X153792079Y-121557831D01*
X153793167Y-121557026D01*
X153889201Y-121446163D01*
X153925236Y-121389461D01*
X154012309Y-121389461D01*
X154058503Y-121527424D01*
X154139000Y-121573728D01*
X154318110Y-121591257D01*
X154547292Y-121578147D01*
X154746484Y-121542318D01*
X154827749Y-121505590D01*
X154834544Y-121405195D01*
X154813483Y-121331653D01*
X154700630Y-121242562D01*
X154497674Y-121210378D01*
X154270861Y-121230321D01*
X154086443Y-121297610D01*
X154012309Y-121389461D01*
X153925236Y-121389461D01*
X153974670Y-121311674D01*
X154037865Y-121170671D01*
X153997391Y-121123287D01*
X153953433Y-121120537D01*
X153850388Y-121046459D01*
X153848493Y-121035587D01*
X154080137Y-121035587D01*
X154155501Y-121088783D01*
X154343768Y-121118371D01*
X154419937Y-121120537D01*
X154632720Y-121101696D01*
X154751071Y-121054629D01*
X154759736Y-121035587D01*
X154684373Y-120982391D01*
X154496106Y-120952803D01*
X154419937Y-120950637D01*
X154207154Y-120969478D01*
X154088802Y-121016545D01*
X154080137Y-121035587D01*
X153848493Y-121035587D01*
X153825288Y-120902438D01*
X153847057Y-120748402D01*
X153942974Y-120723384D01*
X154016425Y-120742086D01*
X154140820Y-120763464D01*
X154122612Y-120714883D01*
X153976629Y-120623137D01*
X153846525Y-120572186D01*
X153719557Y-120551541D01*
X153666181Y-120621338D01*
X153655388Y-120817488D01*
X153617034Y-121029395D01*
X153523470Y-121130403D01*
X153406943Y-121096856D01*
X153358064Y-121035587D01*
X153246682Y-120981287D01*
X153035407Y-120952189D01*
X152970776Y-120950637D01*
X152759853Y-120969741D01*
X152643778Y-121017386D01*
X152635990Y-121035587D01*
X152567848Y-121112435D01*
X152517488Y-121120537D01*
X152424493Y-121039632D01*
X152369348Y-120807459D01*
X152366581Y-120780737D01*
X152363418Y-120663178D01*
X152494957Y-120663178D01*
X152508566Y-120695788D01*
X152621100Y-120777566D01*
X152646017Y-120780737D01*
X152692074Y-120728397D01*
X152678465Y-120695788D01*
X153315589Y-120695788D01*
X153376560Y-120778306D01*
X153395525Y-120780737D01*
X153510576Y-120718988D01*
X153527964Y-120695788D01*
X153508705Y-120623062D01*
X153448027Y-120610838D01*
X153331798Y-120655190D01*
X153315589Y-120695788D01*
X152678465Y-120695788D01*
X152565931Y-120614009D01*
X152541014Y-120610838D01*
X152494957Y-120663178D01*
X152363418Y-120663178D01*
X152360875Y-120568650D01*
X152385867Y-120450022D01*
X152400133Y-120440938D01*
X152450442Y-120383589D01*
X152580608Y-120383589D01*
X152666575Y-120424556D01*
X152875089Y-120439759D01*
X153012165Y-120440938D01*
X153280703Y-120436719D01*
X153412071Y-120414526D01*
X153438961Y-120360060D01*
X153400539Y-120271038D01*
X153278285Y-120149110D01*
X153056747Y-120103092D01*
X152972801Y-120101139D01*
X152761012Y-120109093D01*
X152644062Y-120128942D01*
X152635990Y-120136666D01*
X152609564Y-120236523D01*
X152584427Y-120306566D01*
X152580608Y-120383589D01*
X152450442Y-120383589D01*
X152460073Y-120372610D01*
X152466091Y-120323915D01*
X152526014Y-120174795D01*
X152592580Y-120101915D01*
X152676652Y-119982267D01*
X152672516Y-119921614D01*
X152558981Y-119869122D01*
X152352557Y-119848514D01*
X152127054Y-119858853D01*
X151956283Y-119899203D01*
X151913917Y-119931239D01*
X151810210Y-120016083D01*
X151727964Y-119953015D01*
X151701542Y-119803814D01*
X151749077Y-119628550D01*
X151850204Y-119586055D01*
X151927583Y-119569327D01*
X151850193Y-119521462D01*
X151807729Y-119503843D01*
X151670962Y-119414158D01*
X151611369Y-119313523D01*
X151654971Y-119253573D01*
X151680305Y-119250978D01*
X151709159Y-119226156D01*
X151871442Y-119226156D01*
X151942707Y-119300038D01*
X152164091Y-119333715D01*
X152296191Y-119336590D01*
X152580356Y-119318061D01*
X152709879Y-119260502D01*
X152720940Y-119226156D01*
X152645464Y-119044700D01*
X152449703Y-118932146D01*
X152296191Y-118911841D01*
X152050981Y-118967693D01*
X151898881Y-119112557D01*
X151871442Y-119226156D01*
X151709159Y-119226156D01*
X151762894Y-119179931D01*
X151849677Y-119018595D01*
X151907853Y-118842502D01*
X151906542Y-118730009D01*
X151791930Y-118676024D01*
X151590819Y-118658784D01*
X151382272Y-118676885D01*
X151245351Y-118728925D01*
X151234318Y-118741942D01*
X151111406Y-118820106D01*
X151059405Y-118826891D01*
X150970791Y-118755178D01*
X150937310Y-118572995D01*
X150950920Y-118402142D01*
X151021944Y-118402142D01*
X151091089Y-118476695D01*
X151154382Y-118487092D01*
X151225663Y-118453706D01*
X151871442Y-118453706D01*
X151940810Y-118483402D01*
X151998867Y-118487092D01*
X152111936Y-118442635D01*
X152126291Y-118404808D01*
X152064022Y-118358068D01*
X151998867Y-118371422D01*
X151887093Y-118431718D01*
X151871442Y-118453706D01*
X151225663Y-118453706D01*
X151242310Y-118445909D01*
X151234318Y-118402142D01*
X151125713Y-118320433D01*
X151101880Y-118317192D01*
X151024232Y-118381987D01*
X151021944Y-118402142D01*
X150950920Y-118402142D01*
X150956684Y-118329781D01*
X151026637Y-118074974D01*
X151027084Y-118074054D01*
X151152183Y-118074054D01*
X151188377Y-118124784D01*
X151333246Y-118144286D01*
X151571129Y-118147293D01*
X151827959Y-118136185D01*
X151998749Y-118107515D01*
X152041342Y-118079333D01*
X151969545Y-117930628D01*
X151792288Y-117837862D01*
X151566766Y-117807899D01*
X151350176Y-117847601D01*
X151199714Y-117963833D01*
X151191843Y-117977393D01*
X151152183Y-118074054D01*
X151027084Y-118074054D01*
X151101080Y-117921708D01*
X151195119Y-117735276D01*
X151220036Y-117614805D01*
X151214029Y-117603146D01*
X151097399Y-117563450D01*
X150902532Y-117552314D01*
X150696734Y-117566433D01*
X150547310Y-117602505D01*
X150512245Y-117637594D01*
X150443439Y-117712959D01*
X150384820Y-117722544D01*
X150282524Y-117648392D01*
X150257395Y-117504444D01*
X150280394Y-117350297D01*
X150374647Y-117326132D01*
X150427295Y-117340269D01*
X150571237Y-117365562D01*
X150583320Y-117325892D01*
X150538123Y-117295128D01*
X151191843Y-117295128D01*
X151254112Y-117341869D01*
X151319268Y-117328514D01*
X151431042Y-117268218D01*
X151446693Y-117246231D01*
X151377324Y-117216535D01*
X151319268Y-117212845D01*
X151206198Y-117257302D01*
X151191843Y-117295128D01*
X150538123Y-117295128D01*
X150472912Y-117250741D01*
X150387073Y-117213701D01*
X150251081Y-117151665D01*
X150225256Y-117073904D01*
X150298315Y-116920712D01*
X150313300Y-116894283D01*
X150443036Y-116894283D01*
X150450167Y-116979672D01*
X150537172Y-117024745D01*
X150740140Y-117041471D01*
X150891279Y-117042945D01*
X151158891Y-117038887D01*
X151289304Y-117016791D01*
X151315191Y-116961770D01*
X151274322Y-116868428D01*
X151176502Y-116754867D01*
X151012106Y-116714594D01*
X150826079Y-116719765D01*
X150574416Y-116762035D01*
X150457746Y-116850483D01*
X150443036Y-116894283D01*
X150313300Y-116894283D01*
X150323360Y-116876541D01*
X150449660Y-116703312D01*
X150564830Y-116620024D01*
X150575957Y-116618733D01*
X150674554Y-116557259D01*
X150682144Y-116521361D01*
X150612173Y-116466361D01*
X150395038Y-116458250D01*
X150214920Y-116472748D01*
X149946960Y-116494457D01*
X149806801Y-116481660D01*
X149754124Y-116424388D01*
X149747696Y-116357208D01*
X149811710Y-116216316D01*
X149896358Y-116187476D01*
X149987280Y-116173657D01*
X149925929Y-116130971D01*
X149875121Y-116108497D01*
X149683161Y-116041273D01*
X149598127Y-116076644D01*
X149577881Y-116235676D01*
X149577796Y-116257159D01*
X149577796Y-116490771D01*
X148940673Y-116490771D01*
X148611974Y-116485728D01*
X148418941Y-116465297D01*
X148327501Y-116421530D01*
X148303584Y-116346476D01*
X148303549Y-116342109D01*
X148374799Y-116214882D01*
X148494686Y-116183592D01*
X148612152Y-116173137D01*
X149274841Y-116173137D01*
X149358343Y-116186740D01*
X149468524Y-116171121D01*
X149469839Y-116142123D01*
X149356143Y-116121844D01*
X149307019Y-116135416D01*
X149274841Y-116173137D01*
X148612152Y-116173137D01*
X148621814Y-116172277D01*
X148585209Y-116150345D01*
X148515923Y-116132872D01*
X148324343Y-116070422D01*
X148252553Y-115984931D01*
X148301890Y-115848048D01*
X148359764Y-115775071D01*
G37*
%TO.C,R4*%
X164662500Y-109882776D02*
X164662500Y-110392224D01*
X163617500Y-109882776D02*
X163617500Y-110392224D01*
%TO.C,R6*%
X148464724Y-136972500D02*
X147955276Y-136972500D01*
X148464724Y-135927500D02*
X147955276Y-135927500D01*
D13*
%TO.C,J2*%
X183980000Y-147980000D02*
X168100000Y-147980000D01*
X183980000Y-135980000D02*
X183980000Y-147980000D01*
X183980000Y-131980000D02*
X183980000Y-126140000D01*
X183980000Y-126140000D02*
X168100000Y-126140000D01*
X168100000Y-147980000D02*
X168100000Y-135980000D01*
X168100000Y-126140000D02*
X168100000Y-131980000D01*
D14*
X167340000Y-130860000D02*
X167340000Y-130860000D01*
X167340000Y-130660000D02*
X167340000Y-130660000D01*
X167340000Y-130660000D02*
G75*
G03*
X167340000Y-130860000I0J-100000D01*
G01*
X167340000Y-130860000D02*
G75*
G03*
X167340000Y-130660000I0J100000D01*
G01*
%TD*%
M02*
